<mxfile host="app.diagrams.net" modified="2024-06-26T17:10:28.485Z" agent="Mozilla/5.0 (Windows NT 10.0; Win64; x64) AppleWebKit/537.36 (KHTML, like Gecko) Chrome/126.0.0.0 Safari/537.36 Edg/126.0.0.0" etag="5aqbwJF8Jf0SbUcb28H5" version="24.6.3" type="google">
  <diagram id="C5RBs43oDa-KdzZeNtuy" name="Page-1">
    <mxGraphModel grid="1" page="1" gridSize="10" guides="1" tooltips="1" connect="1" arrows="1" fold="1" pageScale="1" pageWidth="2339" pageHeight="3300" math="0" shadow="0">
      <root>
        <mxCell id="WIyWlLk6GJQsqaUBKTNV-0" />
        <mxCell id="WIyWlLk6GJQsqaUBKTNV-1" parent="WIyWlLk6GJQsqaUBKTNV-0" />
        <mxCell id="zkfFHV4jXpPFQw0GAbJ--0" value="Registro" style="swimlane;fontStyle=2;align=center;verticalAlign=top;childLayout=stackLayout;horizontal=1;startSize=26;horizontalStack=0;resizeParent=1;resizeLast=0;collapsible=1;marginBottom=0;rounded=0;shadow=0;strokeWidth=1;" vertex="1" parent="WIyWlLk6GJQsqaUBKTNV-1">
          <mxGeometry x="60" y="10" width="200" height="404" as="geometry">
            <mxRectangle x="230" y="140" width="160" height="26" as="alternateBounds" />
          </mxGeometry>
        </mxCell>
        <mxCell id="zkfFHV4jXpPFQw0GAbJ--1" value="# N_documento INT&#xa;" style="text;align=left;verticalAlign=top;spacingLeft=4;spacingRight=4;overflow=hidden;rotatable=0;points=[[0,0.5],[1,0.5]];portConstraint=eastwest;" vertex="1" parent="zkfFHV4jXpPFQw0GAbJ--0">
          <mxGeometry y="26" width="200" height="26" as="geometry" />
        </mxCell>
        <mxCell id="jOX8B1E6yKh5dsAMCE3R-0" value="- T_doc  VARCHAR" style="text;align=left;verticalAlign=top;spacingLeft=4;spacingRight=4;overflow=hidden;rotatable=0;points=[[0,0.5],[1,0.5]];portConstraint=eastwest;rounded=0;shadow=0;html=0;" vertex="1" parent="zkfFHV4jXpPFQw0GAbJ--0">
          <mxGeometry y="52" width="200" height="26" as="geometry" />
        </mxCell>
        <mxCell id="zkfFHV4jXpPFQw0GAbJ--2" value="# name VARCHAR    " style="text;align=left;verticalAlign=top;spacingLeft=4;spacingRight=4;overflow=hidden;rotatable=0;points=[[0,0.5],[1,0.5]];portConstraint=eastwest;rounded=0;shadow=0;html=0;" vertex="1" parent="zkfFHV4jXpPFQw0GAbJ--0">
          <mxGeometry y="78" width="200" height="26" as="geometry" />
        </mxCell>
        <mxCell id="jOX8B1E6yKh5dsAMCE3R-1" value="- Dir  VARCHAR" style="text;align=left;verticalAlign=top;spacingLeft=4;spacingRight=4;overflow=hidden;rotatable=0;points=[[0,0.5],[1,0.5]];portConstraint=eastwest;rounded=0;shadow=0;html=0;" vertex="1" parent="zkfFHV4jXpPFQw0GAbJ--0">
          <mxGeometry y="104" width="200" height="26" as="geometry" />
        </mxCell>
        <mxCell id="jOX8B1E6yKh5dsAMCE3R-9" value="- pass VARCHAR" style="text;align=left;verticalAlign=top;spacingLeft=4;spacingRight=4;overflow=hidden;rotatable=0;points=[[0,0.5],[1,0.5]];portConstraint=eastwest;rounded=0;shadow=0;html=0;" vertex="1" parent="zkfFHV4jXpPFQw0GAbJ--0">
          <mxGeometry y="130" width="200" height="26" as="geometry" />
        </mxCell>
        <mxCell id="jOX8B1E6yKh5dsAMCE3R-6" value="# f_nac DATE" style="text;align=left;verticalAlign=top;spacingLeft=4;spacingRight=4;overflow=hidden;rotatable=0;points=[[0,0.5],[1,0.5]];portConstraint=eastwest;rounded=0;shadow=0;html=0;" vertex="1" parent="zkfFHV4jXpPFQw0GAbJ--0">
          <mxGeometry y="156" width="200" height="26" as="geometry" />
        </mxCell>
        <mxCell id="Fc5rwWHIgyGiWodtbmPt-0" value="+ Correo VARCHAR" style="text;align=left;verticalAlign=top;spacingLeft=4;spacingRight=4;overflow=hidden;rotatable=0;points=[[0,0.5],[1,0.5]];portConstraint=eastwest;rounded=0;shadow=0;html=0;" vertex="1" parent="zkfFHV4jXpPFQw0GAbJ--0">
          <mxGeometry y="182" width="200" height="26" as="geometry" />
        </mxCell>
        <mxCell id="zkfFHV4jXpPFQw0GAbJ--4" value="" style="line;html=1;strokeWidth=1;align=left;verticalAlign=middle;spacingTop=-1;spacingLeft=3;spacingRight=3;rotatable=0;labelPosition=right;points=[];portConstraint=eastwest;" vertex="1" parent="zkfFHV4jXpPFQw0GAbJ--0">
          <mxGeometry y="208" width="200" height="40" as="geometry" />
        </mxCell>
        <mxCell id="jOX8B1E6yKh5dsAMCE3R-17" value="Insertar ()" style="text;align=left;verticalAlign=top;spacingLeft=4;spacingRight=4;overflow=hidden;rotatable=0;points=[[0,0.5],[1,0.5]];portConstraint=eastwest;rounded=0;shadow=0;html=0;" vertex="1" parent="zkfFHV4jXpPFQw0GAbJ--0">
          <mxGeometry y="248" width="200" height="26" as="geometry" />
        </mxCell>
        <mxCell id="jOX8B1E6yKh5dsAMCE3R-18" value="Consultar ()" style="text;align=left;verticalAlign=top;spacingLeft=4;spacingRight=4;overflow=hidden;rotatable=0;points=[[0,0.5],[1,0.5]];portConstraint=eastwest;rounded=0;shadow=0;html=0;" vertex="1" parent="zkfFHV4jXpPFQw0GAbJ--0">
          <mxGeometry y="274" width="200" height="26" as="geometry" />
        </mxCell>
        <mxCell id="jOX8B1E6yKh5dsAMCE3R-15" value="Eliminar ()" style="text;align=left;verticalAlign=top;spacingLeft=4;spacingRight=4;overflow=hidden;rotatable=0;points=[[0,0.5],[1,0.5]];portConstraint=eastwest;rounded=0;shadow=0;html=0;" vertex="1" parent="zkfFHV4jXpPFQw0GAbJ--0">
          <mxGeometry y="300" width="200" height="26" as="geometry" />
        </mxCell>
        <mxCell id="jOX8B1E6yKh5dsAMCE3R-16" value="Modificar ()" style="text;align=left;verticalAlign=top;spacingLeft=4;spacingRight=4;overflow=hidden;rotatable=0;points=[[0,0.5],[1,0.5]];portConstraint=eastwest;rounded=0;shadow=0;html=0;" vertex="1" parent="zkfFHV4jXpPFQw0GAbJ--0">
          <mxGeometry y="326" width="200" height="26" as="geometry" />
        </mxCell>
        <mxCell id="zkfFHV4jXpPFQw0GAbJ--17" value="Cita&#xa;" style="swimlane;fontStyle=0;align=center;verticalAlign=top;childLayout=stackLayout;horizontal=1;startSize=26;horizontalStack=0;resizeParent=1;resizeLast=0;collapsible=1;marginBottom=0;rounded=0;shadow=0;strokeWidth=1;" vertex="1" parent="WIyWlLk6GJQsqaUBKTNV-1">
          <mxGeometry x="790" y="150" width="160" height="432" as="geometry">
            <mxRectangle x="550" y="140" width="160" height="26" as="alternateBounds" />
          </mxGeometry>
        </mxCell>
        <mxCell id="zkfFHV4jXpPFQw0GAbJ--18" value="# id_cita INT" style="text;align=left;verticalAlign=top;spacingLeft=4;spacingRight=4;overflow=hidden;rotatable=0;points=[[0,0.5],[1,0.5]];portConstraint=eastwest;" vertex="1" parent="zkfFHV4jXpPFQw0GAbJ--17">
          <mxGeometry y="26" width="160" height="26" as="geometry" />
        </mxCell>
        <mxCell id="zkfFHV4jXpPFQw0GAbJ--19" value="+ f_cita DATE" style="text;align=left;verticalAlign=top;spacingLeft=4;spacingRight=4;overflow=hidden;rotatable=0;points=[[0,0.5],[1,0.5]];portConstraint=eastwest;rounded=0;shadow=0;html=0;" vertex="1" parent="zkfFHV4jXpPFQw0GAbJ--17">
          <mxGeometry y="52" width="160" height="26" as="geometry" />
        </mxCell>
        <mxCell id="jOX8B1E6yKh5dsAMCE3R-250" value="+ t_cita  TEXT" style="text;align=left;verticalAlign=top;spacingLeft=4;spacingRight=4;overflow=hidden;rotatable=0;points=[[0,0.5],[1,0.5]];portConstraint=eastwest;" vertex="1" parent="zkfFHV4jXpPFQw0GAbJ--17">
          <mxGeometry y="78" width="160" height="26" as="geometry" />
        </mxCell>
        <mxCell id="7QewovfHQO4eRIdTPmeA-0" value="+ descripcion_cita TEXT" style="text;align=left;verticalAlign=top;spacingLeft=4;spacingRight=4;overflow=hidden;rotatable=0;points=[[0,0.5],[1,0.5]];portConstraint=eastwest;" vertex="1" parent="zkfFHV4jXpPFQw0GAbJ--17">
          <mxGeometry y="104" width="160" height="26" as="geometry" />
        </mxCell>
        <mxCell id="zkfFHV4jXpPFQw0GAbJ--23" value="" style="line;html=1;strokeWidth=1;align=left;verticalAlign=middle;spacingTop=-1;spacingLeft=3;spacingRight=3;rotatable=0;labelPosition=right;points=[];portConstraint=eastwest;" vertex="1" parent="zkfFHV4jXpPFQw0GAbJ--17">
          <mxGeometry y="130" width="160" height="8" as="geometry" />
        </mxCell>
        <mxCell id="zkfFHV4jXpPFQw0GAbJ--24" value="Insertar ()" style="text;align=left;verticalAlign=top;spacingLeft=4;spacingRight=4;overflow=hidden;rotatable=0;points=[[0,0.5],[1,0.5]];portConstraint=eastwest;" vertex="1" parent="zkfFHV4jXpPFQw0GAbJ--17">
          <mxGeometry y="138" width="160" height="26" as="geometry" />
        </mxCell>
        <mxCell id="zkfFHV4jXpPFQw0GAbJ--25" value="Consultar ()" style="text;align=left;verticalAlign=top;spacingLeft=4;spacingRight=4;overflow=hidden;rotatable=0;points=[[0,0.5],[1,0.5]];portConstraint=eastwest;" vertex="1" parent="zkfFHV4jXpPFQw0GAbJ--17">
          <mxGeometry y="164" width="160" height="26" as="geometry" />
        </mxCell>
        <mxCell id="jOX8B1E6yKh5dsAMCE3R-20" value="Eliminar ()" style="text;align=left;verticalAlign=top;spacingLeft=4;spacingRight=4;overflow=hidden;rotatable=0;points=[[0,0.5],[1,0.5]];portConstraint=eastwest;" vertex="1" parent="zkfFHV4jXpPFQw0GAbJ--17">
          <mxGeometry y="190" width="160" height="26" as="geometry" />
        </mxCell>
        <mxCell id="jOX8B1E6yKh5dsAMCE3R-21" value="Modificar ()" style="text;align=left;verticalAlign=top;spacingLeft=4;spacingRight=4;overflow=hidden;rotatable=0;points=[[0,0.5],[1,0.5]];portConstraint=eastwest;" vertex="1" parent="zkfFHV4jXpPFQw0GAbJ--17">
          <mxGeometry y="216" width="160" height="26" as="geometry" />
        </mxCell>
        <mxCell id="jOX8B1E6yKh5dsAMCE3R-244" value="" style="line;html=1;strokeWidth=1;align=left;verticalAlign=middle;spacingTop=-1;spacingLeft=3;spacingRight=3;rotatable=0;labelPosition=right;points=[];portConstraint=eastwest;" vertex="1" parent="zkfFHV4jXpPFQw0GAbJ--17">
          <mxGeometry y="242" width="160" height="8" as="geometry" />
        </mxCell>
        <mxCell id="jOX8B1E6yKh5dsAMCE3R-251" value="# N_documento INT&#xa;" style="text;align=left;verticalAlign=top;spacingLeft=4;spacingRight=4;overflow=hidden;rotatable=0;points=[[0,0.5],[1,0.5]];portConstraint=eastwest;rounded=0;shadow=0;html=0;" vertex="1" parent="zkfFHV4jXpPFQw0GAbJ--17">
          <mxGeometry y="250" width="160" height="26" as="geometry" />
        </mxCell>
        <mxCell id="Fc5rwWHIgyGiWodtbmPt-4" value="# id_hvida INT" style="text;align=left;verticalAlign=top;spacingLeft=4;spacingRight=4;overflow=hidden;rotatable=0;points=[[0,0.5],[1,0.5]];portConstraint=eastwest;" vertex="1" parent="zkfFHV4jXpPFQw0GAbJ--17">
          <mxGeometry y="276" width="160" height="26" as="geometry" />
        </mxCell>
        <mxCell id="0K_JYqIvTRMkpTlaCudj-1" value="# id_hvida INT" style="text;align=left;verticalAlign=top;spacingLeft=4;spacingRight=4;overflow=hidden;rotatable=0;points=[[0,0.5],[1,0.5]];portConstraint=eastwest;" vertex="1" parent="zkfFHV4jXpPFQw0GAbJ--17">
          <mxGeometry y="302" width="160" height="26" as="geometry" />
        </mxCell>
        <mxCell id="Fc5rwWHIgyGiWodtbmPt-2" value="# name VARCHAR    " style="text;align=left;verticalAlign=top;spacingLeft=4;spacingRight=4;overflow=hidden;rotatable=0;points=[[0,0.5],[1,0.5]];portConstraint=eastwest;rounded=0;shadow=0;html=0;" vertex="1" parent="zkfFHV4jXpPFQw0GAbJ--17">
          <mxGeometry y="328" width="160" height="26" as="geometry" />
        </mxCell>
        <mxCell id="Fc5rwWHIgyGiWodtbmPt-5" value="+ experiencia VARCHAR" style="text;align=left;verticalAlign=top;spacingLeft=4;spacingRight=4;overflow=hidden;rotatable=0;points=[[0,0.5],[1,0.5]];portConstraint=eastwest;rounded=0;shadow=0;html=0;" vertex="1" parent="zkfFHV4jXpPFQw0GAbJ--17">
          <mxGeometry y="354" width="160" height="26" as="geometry" />
        </mxCell>
        <mxCell id="Fc5rwWHIgyGiWodtbmPt-6" value="+ Estudios VARCHAR" style="text;align=left;verticalAlign=top;spacingLeft=4;spacingRight=4;overflow=hidden;rotatable=0;points=[[0,0.5],[1,0.5]];portConstraint=eastwest;rounded=0;shadow=0;html=0;" vertex="1" parent="zkfFHV4jXpPFQw0GAbJ--17">
          <mxGeometry y="380" width="160" height="26" as="geometry" />
        </mxCell>
        <mxCell id="Fc5rwWHIgyGiWodtbmPt-3" value="+ Correo VARCHAR" style="text;align=left;verticalAlign=top;spacingLeft=4;spacingRight=4;overflow=hidden;rotatable=0;points=[[0,0.5],[1,0.5]];portConstraint=eastwest;rounded=0;shadow=0;html=0;" vertex="1" parent="zkfFHV4jXpPFQw0GAbJ--17">
          <mxGeometry y="406" width="160" height="26" as="geometry" />
        </mxCell>
        <mxCell id="53rKh5pQGC1R5wsvCNT7-48" style="edgeStyle=orthogonalEdgeStyle;rounded=0;orthogonalLoop=1;jettySize=auto;html=1;entryX=0.5;entryY=0;entryDx=0;entryDy=0;" edge="1" parent="WIyWlLk6GJQsqaUBKTNV-1" source="jOX8B1E6yKh5dsAMCE3R-23" target="53rKh5pQGC1R5wsvCNT7-30">
          <mxGeometry relative="1" as="geometry">
            <Array as="points">
              <mxPoint x="380" y="279" />
              <mxPoint x="380" y="1160" />
              <mxPoint x="190" y="1160" />
              <mxPoint x="190" y="1300" />
            </Array>
          </mxGeometry>
        </mxCell>
        <mxCell id="53rKh5pQGC1R5wsvCNT7-67" style="edgeStyle=orthogonalEdgeStyle;rounded=0;orthogonalLoop=1;jettySize=auto;html=1;entryX=0.5;entryY=0;entryDx=0;entryDy=0;" edge="1" parent="WIyWlLk6GJQsqaUBKTNV-1" source="jOX8B1E6yKh5dsAMCE3R-23" target="53rKh5pQGC1R5wsvCNT7-49">
          <mxGeometry relative="1" as="geometry">
            <Array as="points">
              <mxPoint x="380" y="279" />
            </Array>
          </mxGeometry>
        </mxCell>
        <mxCell id="jOX8B1E6yKh5dsAMCE3R-23" value="Hoja de vida" style="swimlane;fontStyle=0;align=center;verticalAlign=top;childLayout=stackLayout;horizontal=1;startSize=26;horizontalStack=0;resizeParent=1;resizeLast=0;collapsible=1;marginBottom=0;rounded=0;shadow=0;strokeWidth=1;" vertex="1" parent="WIyWlLk6GJQsqaUBKTNV-1">
          <mxGeometry x="410" y="10" width="180" height="538" as="geometry">
            <mxRectangle x="550" y="140" width="160" height="26" as="alternateBounds" />
          </mxGeometry>
        </mxCell>
        <mxCell id="jOX8B1E6yKh5dsAMCE3R-24" value="# id_hvida INT" style="text;align=left;verticalAlign=top;spacingLeft=4;spacingRight=4;overflow=hidden;rotatable=0;points=[[0,0.5],[1,0.5]];portConstraint=eastwest;" vertex="1" parent="jOX8B1E6yKh5dsAMCE3R-23">
          <mxGeometry y="26" width="180" height="26" as="geometry" />
        </mxCell>
        <mxCell id="jOX8B1E6yKh5dsAMCE3R-132" value="+ experiencia VARCHAR" style="text;align=left;verticalAlign=top;spacingLeft=4;spacingRight=4;overflow=hidden;rotatable=0;points=[[0,0.5],[1,0.5]];portConstraint=eastwest;rounded=0;shadow=0;html=0;" vertex="1" parent="jOX8B1E6yKh5dsAMCE3R-23">
          <mxGeometry y="52" width="180" height="26" as="geometry" />
        </mxCell>
        <mxCell id="0K_JYqIvTRMkpTlaCudj-3" value="+ Estudios VARCHAR" style="text;align=left;verticalAlign=top;spacingLeft=4;spacingRight=4;overflow=hidden;rotatable=0;points=[[0,0.5],[1,0.5]];portConstraint=eastwest;rounded=0;shadow=0;html=0;" vertex="1" parent="jOX8B1E6yKh5dsAMCE3R-23">
          <mxGeometry y="78" width="180" height="26" as="geometry" />
        </mxCell>
        <mxCell id="0K_JYqIvTRMkpTlaCudj-5" value="+ Correo VARCHAR" style="text;align=left;verticalAlign=top;spacingLeft=4;spacingRight=4;overflow=hidden;rotatable=0;points=[[0,0.5],[1,0.5]];portConstraint=eastwest;rounded=0;shadow=0;html=0;" vertex="1" parent="jOX8B1E6yKh5dsAMCE3R-23">
          <mxGeometry y="104" width="180" height="26" as="geometry" />
        </mxCell>
        <mxCell id="jOX8B1E6yKh5dsAMCE3R-27" value="" style="line;html=1;strokeWidth=1;align=left;verticalAlign=middle;spacingTop=-1;spacingLeft=3;spacingRight=3;rotatable=0;labelPosition=right;points=[];portConstraint=eastwest;" vertex="1" parent="jOX8B1E6yKh5dsAMCE3R-23">
          <mxGeometry y="130" width="180" height="38" as="geometry" />
        </mxCell>
        <mxCell id="jOX8B1E6yKh5dsAMCE3R-28" value="Consultar ()" style="text;align=left;verticalAlign=top;spacingLeft=4;spacingRight=4;overflow=hidden;rotatable=0;points=[[0,0.5],[1,0.5]];portConstraint=eastwest;" vertex="1" parent="jOX8B1E6yKh5dsAMCE3R-23">
          <mxGeometry y="168" width="180" height="26" as="geometry" />
        </mxCell>
        <mxCell id="jOX8B1E6yKh5dsAMCE3R-134" value="Insertar ()" style="text;align=left;verticalAlign=top;spacingLeft=4;spacingRight=4;overflow=hidden;rotatable=0;points=[[0,0.5],[1,0.5]];portConstraint=eastwest;rounded=0;shadow=0;html=0;" vertex="1" parent="jOX8B1E6yKh5dsAMCE3R-23">
          <mxGeometry y="194" width="180" height="26" as="geometry" />
        </mxCell>
        <mxCell id="jOX8B1E6yKh5dsAMCE3R-135" value="Eliminar ()" style="text;align=left;verticalAlign=top;spacingLeft=4;spacingRight=4;overflow=hidden;rotatable=0;points=[[0,0.5],[1,0.5]];portConstraint=eastwest;rounded=0;shadow=0;html=0;" vertex="1" parent="jOX8B1E6yKh5dsAMCE3R-23">
          <mxGeometry y="220" width="180" height="26" as="geometry" />
        </mxCell>
        <mxCell id="jOX8B1E6yKh5dsAMCE3R-47" value="Modificar ()" style="text;align=left;verticalAlign=top;spacingLeft=4;spacingRight=4;overflow=hidden;rotatable=0;points=[[0,0.5],[1,0.5]];portConstraint=eastwest;rounded=0;shadow=0;html=0;" vertex="1" parent="jOX8B1E6yKh5dsAMCE3R-23">
          <mxGeometry y="246" width="180" height="26" as="geometry" />
        </mxCell>
        <mxCell id="jOX8B1E6yKh5dsAMCE3R-231" value="" style="line;html=1;strokeWidth=1;align=left;verticalAlign=middle;spacingTop=-1;spacingLeft=3;spacingRight=3;rotatable=0;labelPosition=right;points=[];portConstraint=eastwest;" vertex="1" parent="jOX8B1E6yKh5dsAMCE3R-23">
          <mxGeometry y="272" width="180" height="32" as="geometry" />
        </mxCell>
        <mxCell id="jOX8B1E6yKh5dsAMCE3R-255" value="# N_documento INT&#xa;" style="text;align=left;verticalAlign=top;spacingLeft=4;spacingRight=4;overflow=hidden;rotatable=0;points=[[0,0.5],[1,0.5]];portConstraint=eastwest;" vertex="1" parent="jOX8B1E6yKh5dsAMCE3R-23">
          <mxGeometry y="304" width="180" height="26" as="geometry" />
        </mxCell>
        <mxCell id="8CnTDP2FAJpPbmEVU6To-5" value="- T_doc  VARCHAR" style="text;align=left;verticalAlign=top;spacingLeft=4;spacingRight=4;overflow=hidden;rotatable=0;points=[[0,0.5],[1,0.5]];portConstraint=eastwest;rounded=0;shadow=0;html=0;" vertex="1" parent="jOX8B1E6yKh5dsAMCE3R-23">
          <mxGeometry y="330" width="180" height="26" as="geometry" />
        </mxCell>
        <mxCell id="8CnTDP2FAJpPbmEVU6To-6" value="# name VARCHAR    " style="text;align=left;verticalAlign=top;spacingLeft=4;spacingRight=4;overflow=hidden;rotatable=0;points=[[0,0.5],[1,0.5]];portConstraint=eastwest;rounded=0;shadow=0;html=0;" vertex="1" parent="jOX8B1E6yKh5dsAMCE3R-23">
          <mxGeometry y="356" width="180" height="26" as="geometry" />
        </mxCell>
        <mxCell id="jOX8B1E6yKh5dsAMCE3R-252" value="- Dir  VARCHAR" style="text;align=left;verticalAlign=top;spacingLeft=4;spacingRight=4;overflow=hidden;rotatable=0;points=[[0,0.5],[1,0.5]];portConstraint=eastwest;" vertex="1" parent="jOX8B1E6yKh5dsAMCE3R-23">
          <mxGeometry y="382" width="180" height="26" as="geometry" />
        </mxCell>
        <mxCell id="8CnTDP2FAJpPbmEVU6To-3" value="- pass VARCHAR" style="text;align=left;verticalAlign=top;spacingLeft=4;spacingRight=4;overflow=hidden;rotatable=0;points=[[0,0.5],[1,0.5]];portConstraint=eastwest;rounded=0;shadow=0;html=0;" vertex="1" parent="jOX8B1E6yKh5dsAMCE3R-23">
          <mxGeometry y="408" width="180" height="26" as="geometry" />
        </mxCell>
        <mxCell id="jOX8B1E6yKh5dsAMCE3R-253" value="# f_nac DATE" style="text;align=left;verticalAlign=top;spacingLeft=4;spacingRight=4;overflow=hidden;rotatable=0;points=[[0,0.5],[1,0.5]];portConstraint=eastwest;rounded=0;shadow=0;html=0;" vertex="1" parent="jOX8B1E6yKh5dsAMCE3R-23">
          <mxGeometry y="434" width="180" height="26" as="geometry" />
        </mxCell>
        <mxCell id="jOX8B1E6yKh5dsAMCE3R-33" value="Vacantes" style="swimlane;fontStyle=2;align=center;verticalAlign=top;childLayout=stackLayout;horizontal=1;startSize=26;horizontalStack=0;resizeParent=1;resizeLast=0;collapsible=1;marginBottom=0;rounded=0;shadow=0;strokeWidth=1;" vertex="1" parent="WIyWlLk6GJQsqaUBKTNV-1">
          <mxGeometry x="60" y="548" width="200" height="548" as="geometry">
            <mxRectangle x="230" y="140" width="160" height="26" as="alternateBounds" />
          </mxGeometry>
        </mxCell>
        <mxCell id="jOX8B1E6yKh5dsAMCE3R-37" value="# id_vacantes INT" style="text;align=left;verticalAlign=top;spacingLeft=4;spacingRight=4;overflow=hidden;rotatable=0;points=[[0,0.5],[1,0.5]];portConstraint=eastwest;rounded=0;shadow=0;html=0;" vertex="1" parent="jOX8B1E6yKh5dsAMCE3R-33">
          <mxGeometry y="26" width="200" height="26" as="geometry" />
        </mxCell>
        <mxCell id="jOX8B1E6yKh5dsAMCE3R-34" value="+ Vacante_disp VARCHAR" style="text;align=left;verticalAlign=top;spacingLeft=4;spacingRight=4;overflow=hidden;rotatable=0;points=[[0,0.5],[1,0.5]];portConstraint=eastwest;" vertex="1" parent="jOX8B1E6yKh5dsAMCE3R-33">
          <mxGeometry y="52" width="200" height="26" as="geometry" />
        </mxCell>
        <mxCell id="jOX8B1E6yKh5dsAMCE3R-38" value="+ Descripcion VARCHAR" style="text;align=left;verticalAlign=top;spacingLeft=4;spacingRight=4;overflow=hidden;rotatable=0;points=[[0,0.5],[1,0.5]];portConstraint=eastwest;rounded=0;shadow=0;html=0;" vertex="1" parent="jOX8B1E6yKh5dsAMCE3R-33">
          <mxGeometry y="78" width="200" height="26" as="geometry" />
        </mxCell>
        <mxCell id="jOX8B1E6yKh5dsAMCE3R-42" value="" style="line;html=1;strokeWidth=1;align=left;verticalAlign=middle;spacingTop=-1;spacingLeft=3;spacingRight=3;rotatable=0;labelPosition=right;points=[];portConstraint=eastwest;" vertex="1" parent="jOX8B1E6yKh5dsAMCE3R-33">
          <mxGeometry y="104" width="200" height="18" as="geometry" />
        </mxCell>
        <mxCell id="jOX8B1E6yKh5dsAMCE3R-43" value="Insertar ()" style="text;align=left;verticalAlign=top;spacingLeft=4;spacingRight=4;overflow=hidden;rotatable=0;points=[[0,0.5],[1,0.5]];portConstraint=eastwest;rounded=0;shadow=0;html=0;" vertex="1" parent="jOX8B1E6yKh5dsAMCE3R-33">
          <mxGeometry y="122" width="200" height="26" as="geometry" />
        </mxCell>
        <mxCell id="jOX8B1E6yKh5dsAMCE3R-44" value="Consultar ()" style="text;align=left;verticalAlign=top;spacingLeft=4;spacingRight=4;overflow=hidden;rotatable=0;points=[[0,0.5],[1,0.5]];portConstraint=eastwest;rounded=0;shadow=0;html=0;" vertex="1" parent="jOX8B1E6yKh5dsAMCE3R-33">
          <mxGeometry y="148" width="200" height="26" as="geometry" />
        </mxCell>
        <mxCell id="jOX8B1E6yKh5dsAMCE3R-45" value="Eliminar ()" style="text;align=left;verticalAlign=top;spacingLeft=4;spacingRight=4;overflow=hidden;rotatable=0;points=[[0,0.5],[1,0.5]];portConstraint=eastwest;rounded=0;shadow=0;html=0;" vertex="1" parent="jOX8B1E6yKh5dsAMCE3R-33">
          <mxGeometry y="174" width="200" height="26" as="geometry" />
        </mxCell>
        <mxCell id="jOX8B1E6yKh5dsAMCE3R-148" value="Modificar ()" style="text;align=left;verticalAlign=top;spacingLeft=4;spacingRight=4;overflow=hidden;rotatable=0;points=[[0,0.5],[1,0.5]];portConstraint=eastwest;rounded=0;shadow=0;html=0;" vertex="1" parent="jOX8B1E6yKh5dsAMCE3R-33">
          <mxGeometry y="200" width="200" height="26" as="geometry" />
        </mxCell>
        <mxCell id="jOX8B1E6yKh5dsAMCE3R-202" value="" style="line;html=1;strokeWidth=1;align=left;verticalAlign=middle;spacingTop=-1;spacingLeft=3;spacingRight=3;rotatable=0;labelPosition=right;points=[];portConstraint=eastwest;" vertex="1" parent="jOX8B1E6yKh5dsAMCE3R-33">
          <mxGeometry y="226" width="200" height="34" as="geometry" />
        </mxCell>
        <mxCell id="jOX8B1E6yKh5dsAMCE3R-261" value="# N_documento INT&#xa;" style="text;align=left;verticalAlign=top;spacingLeft=4;spacingRight=4;overflow=hidden;rotatable=0;points=[[0,0.5],[1,0.5]];portConstraint=eastwest;" vertex="1" parent="jOX8B1E6yKh5dsAMCE3R-33">
          <mxGeometry y="260" width="200" height="26" as="geometry" />
        </mxCell>
        <mxCell id="jOX8B1E6yKh5dsAMCE3R-206" value="# name VARCHAR    " style="text;align=left;verticalAlign=top;spacingLeft=4;spacingRight=4;overflow=hidden;rotatable=0;points=[[0,0.5],[1,0.5]];portConstraint=eastwest;rounded=0;shadow=0;html=0;" vertex="1" parent="jOX8B1E6yKh5dsAMCE3R-33">
          <mxGeometry y="286" width="200" height="26" as="geometry" />
        </mxCell>
        <mxCell id="jOX8B1E6yKh5dsAMCE3R-161" value="  " style="text;align=left;verticalAlign=top;spacingLeft=4;spacingRight=4;overflow=hidden;rotatable=0;points=[[0,0.5],[1,0.5]];portConstraint=eastwest;rounded=0;shadow=0;html=0;" vertex="1" parent="jOX8B1E6yKh5dsAMCE3R-33">
          <mxGeometry y="312" width="200" height="2" as="geometry" />
        </mxCell>
        <mxCell id="jOX8B1E6yKh5dsAMCE3R-207" value="# id_hvida INT" style="text;align=left;verticalAlign=top;spacingLeft=4;spacingRight=4;overflow=hidden;rotatable=0;points=[[0,0.5],[1,0.5]];portConstraint=eastwest;rounded=0;shadow=0;html=0;" vertex="1" parent="jOX8B1E6yKh5dsAMCE3R-33">
          <mxGeometry y="314" width="200" height="26" as="geometry" />
        </mxCell>
        <mxCell id="jOX8B1E6yKh5dsAMCE3R-210" value="+ Correo_Usu  VARCHAR" style="text;align=left;verticalAlign=top;spacingLeft=4;spacingRight=4;overflow=hidden;rotatable=0;points=[[0,0.5],[1,0.5]];portConstraint=eastwest;rounded=0;shadow=0;html=0;" vertex="1" parent="jOX8B1E6yKh5dsAMCE3R-33">
          <mxGeometry y="340" width="200" height="26" as="geometry" />
        </mxCell>
        <mxCell id="jOX8B1E6yKh5dsAMCE3R-209" value="+ Telefono_Usu  INT" style="text;align=left;verticalAlign=top;spacingLeft=4;spacingRight=4;overflow=hidden;rotatable=0;points=[[0,0.5],[1,0.5]];portConstraint=eastwest;rounded=0;shadow=0;html=0;" vertex="1" parent="jOX8B1E6yKh5dsAMCE3R-33">
          <mxGeometry y="366" width="200" height="26" as="geometry" />
        </mxCell>
        <mxCell id="jOX8B1E6yKh5dsAMCE3R-208" value="+ Direccion_Usu  VARCHAR" style="text;align=left;verticalAlign=top;spacingLeft=4;spacingRight=4;overflow=hidden;rotatable=0;points=[[0,0.5],[1,0.5]];portConstraint=eastwest;rounded=0;shadow=0;html=0;" vertex="1" parent="jOX8B1E6yKh5dsAMCE3R-33">
          <mxGeometry y="392" width="200" height="26" as="geometry" />
        </mxCell>
        <mxCell id="8CnTDP2FAJpPbmEVU6To-0" value="# Codigo_Pro INT" style="text;align=left;verticalAlign=top;spacingLeft=4;spacingRight=4;overflow=hidden;rotatable=0;points=[[0,0.5],[1,0.5]];portConstraint=eastwest;" vertex="1" parent="jOX8B1E6yKh5dsAMCE3R-33">
          <mxGeometry y="418" width="200" height="26" as="geometry" />
        </mxCell>
        <mxCell id="jOX8B1E6yKh5dsAMCE3R-223" value="# Nombre_Pro VARCHAR" style="text;align=left;verticalAlign=top;spacingLeft=4;spacingRight=4;overflow=hidden;rotatable=0;points=[[0,0.5],[1,0.5]];portConstraint=eastwest;rounded=0;shadow=0;html=0;" vertex="1" parent="jOX8B1E6yKh5dsAMCE3R-33">
          <mxGeometry y="444" width="200" height="26" as="geometry" />
        </mxCell>
        <mxCell id="jOX8B1E6yKh5dsAMCE3R-222" value="+ Precio_Pro VARCHAR" style="text;align=left;verticalAlign=top;spacingLeft=4;spacingRight=4;overflow=hidden;rotatable=0;points=[[0,0.5],[1,0.5]];portConstraint=eastwest;rounded=0;shadow=0;html=0;" vertex="1" parent="jOX8B1E6yKh5dsAMCE3R-33">
          <mxGeometry y="470" width="200" height="26" as="geometry" />
        </mxCell>
        <mxCell id="8CnTDP2FAJpPbmEVU6To-14" value="+ FechaSAL_Pro DATE" style="text;align=left;verticalAlign=top;spacingLeft=4;spacingRight=4;overflow=hidden;rotatable=0;points=[[0,0.5],[1,0.5]];portConstraint=eastwest;rounded=0;shadow=0;html=0;" vertex="1" parent="jOX8B1E6yKh5dsAMCE3R-33">
          <mxGeometry y="496" width="200" height="26" as="geometry" />
        </mxCell>
        <mxCell id="jOX8B1E6yKh5dsAMCE3R-48" value="Jornada" style="swimlane;fontStyle=2;align=center;verticalAlign=top;childLayout=stackLayout;horizontal=1;startSize=26;horizontalStack=0;resizeParent=1;resizeLast=0;collapsible=1;marginBottom=0;rounded=0;shadow=0;strokeWidth=1;" vertex="1" parent="WIyWlLk6GJQsqaUBKTNV-1">
          <mxGeometry x="1670" y="620" width="240" height="536" as="geometry">
            <mxRectangle x="230" y="140" width="160" height="26" as="alternateBounds" />
          </mxGeometry>
        </mxCell>
        <mxCell id="jOX8B1E6yKh5dsAMCE3R-49" value="# id_jornada INT" style="text;align=left;verticalAlign=top;spacingLeft=4;spacingRight=4;overflow=hidden;rotatable=0;points=[[0,0.5],[1,0.5]];portConstraint=eastwest;" vertex="1" parent="jOX8B1E6yKh5dsAMCE3R-48">
          <mxGeometry y="26" width="240" height="26" as="geometry" />
        </mxCell>
        <mxCell id="jOX8B1E6yKh5dsAMCE3R-50" value="+ Hora_inicio DATE" style="text;align=left;verticalAlign=top;spacingLeft=4;spacingRight=4;overflow=hidden;rotatable=0;points=[[0,0.5],[1,0.5]];portConstraint=eastwest;rounded=0;shadow=0;html=0;" vertex="1" parent="jOX8B1E6yKh5dsAMCE3R-48">
          <mxGeometry y="52" width="240" height="26" as="geometry" />
        </mxCell>
        <mxCell id="7QewovfHQO4eRIdTPmeA-59" value="+ Hora_descanso DATE" style="text;align=left;verticalAlign=top;spacingLeft=4;spacingRight=4;overflow=hidden;rotatable=0;points=[[0,0.5],[1,0.5]];portConstraint=eastwest;rounded=0;shadow=0;html=0;" vertex="1" parent="jOX8B1E6yKh5dsAMCE3R-48">
          <mxGeometry y="78" width="240" height="26" as="geometry" />
        </mxCell>
        <mxCell id="7QewovfHQO4eRIdTPmeA-58" value="+ Hora_final DATE&#xa;" style="text;align=left;verticalAlign=top;spacingLeft=4;spacingRight=4;overflow=hidden;rotatable=0;points=[[0,0.5],[1,0.5]];portConstraint=eastwest;rounded=0;shadow=0;html=0;" vertex="1" parent="jOX8B1E6yKh5dsAMCE3R-48">
          <mxGeometry y="104" width="240" height="26" as="geometry" />
        </mxCell>
        <mxCell id="jOX8B1E6yKh5dsAMCE3R-55" value="" style="line;html=1;strokeWidth=1;align=left;verticalAlign=middle;spacingTop=-1;spacingLeft=3;spacingRight=3;rotatable=0;labelPosition=right;points=[];portConstraint=eastwest;" vertex="1" parent="jOX8B1E6yKh5dsAMCE3R-48">
          <mxGeometry y="130" width="240" height="8" as="geometry" />
        </mxCell>
        <mxCell id="jOX8B1E6yKh5dsAMCE3R-56" value="Insertar ()" style="text;align=left;verticalAlign=top;spacingLeft=4;spacingRight=4;overflow=hidden;rotatable=0;points=[[0,0.5],[1,0.5]];portConstraint=eastwest;rounded=0;shadow=0;html=0;" vertex="1" parent="jOX8B1E6yKh5dsAMCE3R-48">
          <mxGeometry y="138" width="240" height="26" as="geometry" />
        </mxCell>
        <mxCell id="jOX8B1E6yKh5dsAMCE3R-57" value="Consultas ()" style="text;align=left;verticalAlign=top;spacingLeft=4;spacingRight=4;overflow=hidden;rotatable=0;points=[[0,0.5],[1,0.5]];portConstraint=eastwest;rounded=0;shadow=0;html=0;" vertex="1" parent="jOX8B1E6yKh5dsAMCE3R-48">
          <mxGeometry y="164" width="240" height="26" as="geometry" />
        </mxCell>
        <mxCell id="jOX8B1E6yKh5dsAMCE3R-58" value="Eliminar ()" style="text;align=left;verticalAlign=top;spacingLeft=4;spacingRight=4;overflow=hidden;rotatable=0;points=[[0,0.5],[1,0.5]];portConstraint=eastwest;rounded=0;shadow=0;html=0;" vertex="1" parent="jOX8B1E6yKh5dsAMCE3R-48">
          <mxGeometry y="190" width="240" height="26" as="geometry" />
        </mxCell>
        <mxCell id="jOX8B1E6yKh5dsAMCE3R-59" value="Modificar ()" style="text;align=left;verticalAlign=top;spacingLeft=4;spacingRight=4;overflow=hidden;rotatable=0;points=[[0,0.5],[1,0.5]];portConstraint=eastwest;rounded=0;shadow=0;html=0;" vertex="1" parent="jOX8B1E6yKh5dsAMCE3R-48">
          <mxGeometry y="216" width="240" height="26" as="geometry" />
        </mxCell>
        <mxCell id="jOX8B1E6yKh5dsAMCE3R-178" value="" style="line;html=1;strokeWidth=1;align=left;verticalAlign=middle;spacingTop=-1;spacingLeft=3;spacingRight=3;rotatable=0;labelPosition=right;points=[];portConstraint=eastwest;" vertex="1" parent="jOX8B1E6yKh5dsAMCE3R-48">
          <mxGeometry y="242" width="240" height="8" as="geometry" />
        </mxCell>
        <mxCell id="8CnTDP2FAJpPbmEVU6To-17" value="# Doc_Usu INT" style="text;align=left;verticalAlign=top;spacingLeft=4;spacingRight=4;overflow=hidden;rotatable=0;points=[[0,0.5],[1,0.5]];portConstraint=eastwest;" vertex="1" parent="jOX8B1E6yKh5dsAMCE3R-48">
          <mxGeometry y="250" width="240" height="26" as="geometry" />
        </mxCell>
        <mxCell id="jOX8B1E6yKh5dsAMCE3R-216" value="# Nombre_Usu  VARCHAR" style="text;align=left;verticalAlign=top;spacingLeft=4;spacingRight=4;overflow=hidden;rotatable=0;points=[[0,0.5],[1,0.5]];portConstraint=eastwest;rounded=0;shadow=0;html=0;" vertex="1" parent="jOX8B1E6yKh5dsAMCE3R-48">
          <mxGeometry y="276" width="240" height="26" as="geometry" />
        </mxCell>
        <mxCell id="jOX8B1E6yKh5dsAMCE3R-217" value="# Apellido_Usu  VARCHAR" style="text;align=left;verticalAlign=top;spacingLeft=4;spacingRight=4;overflow=hidden;rotatable=0;points=[[0,0.5],[1,0.5]];portConstraint=eastwest;rounded=0;shadow=0;html=0;" vertex="1" parent="jOX8B1E6yKh5dsAMCE3R-48">
          <mxGeometry y="302" width="240" height="26" as="geometry" />
        </mxCell>
        <mxCell id="jOX8B1E6yKh5dsAMCE3R-220" value="+ Correo_Usu  VARCHAR" style="text;align=left;verticalAlign=top;spacingLeft=4;spacingRight=4;overflow=hidden;rotatable=0;points=[[0,0.5],[1,0.5]];portConstraint=eastwest;rounded=0;shadow=0;html=0;" vertex="1" parent="jOX8B1E6yKh5dsAMCE3R-48">
          <mxGeometry y="328" width="240" height="26" as="geometry" />
        </mxCell>
        <mxCell id="jOX8B1E6yKh5dsAMCE3R-219" value="+ Telefono_Usu  INT" style="text;align=left;verticalAlign=top;spacingLeft=4;spacingRight=4;overflow=hidden;rotatable=0;points=[[0,0.5],[1,0.5]];portConstraint=eastwest;rounded=0;shadow=0;html=0;" vertex="1" parent="jOX8B1E6yKh5dsAMCE3R-48">
          <mxGeometry y="354" width="240" height="26" as="geometry" />
        </mxCell>
        <mxCell id="jOX8B1E6yKh5dsAMCE3R-218" value="+ Direccion_Usu  VARCHAR" style="text;align=left;verticalAlign=top;spacingLeft=4;spacingRight=4;overflow=hidden;rotatable=0;points=[[0,0.5],[1,0.5]];portConstraint=eastwest;rounded=0;shadow=0;html=0;" vertex="1" parent="jOX8B1E6yKh5dsAMCE3R-48">
          <mxGeometry y="380" width="240" height="26" as="geometry" />
        </mxCell>
        <mxCell id="8CnTDP2FAJpPbmEVU6To-1" value="# Codigo_Pro INT" style="text;align=left;verticalAlign=top;spacingLeft=4;spacingRight=4;overflow=hidden;rotatable=0;points=[[0,0.5],[1,0.5]];portConstraint=eastwest;" vertex="1" parent="jOX8B1E6yKh5dsAMCE3R-48">
          <mxGeometry y="406" width="240" height="26" as="geometry" />
        </mxCell>
        <mxCell id="8CnTDP2FAJpPbmEVU6To-2" value="# Nombre_Pro VARCHAR" style="text;align=left;verticalAlign=top;spacingLeft=4;spacingRight=4;overflow=hidden;rotatable=0;points=[[0,0.5],[1,0.5]];portConstraint=eastwest;rounded=0;shadow=0;html=0;" vertex="1" parent="jOX8B1E6yKh5dsAMCE3R-48">
          <mxGeometry y="432" width="240" height="26" as="geometry" />
        </mxCell>
        <mxCell id="jOX8B1E6yKh5dsAMCE3R-154" value="+ FechaSAL_Pro DATE" style="text;align=left;verticalAlign=top;spacingLeft=4;spacingRight=4;overflow=hidden;rotatable=0;points=[[0,0.5],[1,0.5]];portConstraint=eastwest;rounded=0;shadow=0;html=0;" vertex="1" parent="jOX8B1E6yKh5dsAMCE3R-48">
          <mxGeometry y="458" width="240" height="26" as="geometry" />
        </mxCell>
        <mxCell id="jOX8B1E6yKh5dsAMCE3R-224" value="# Total_Car  VARCHAR" style="text;align=left;verticalAlign=top;spacingLeft=4;spacingRight=4;overflow=hidden;rotatable=0;points=[[0,0.5],[1,0.5]];portConstraint=eastwest;rounded=0;shadow=0;html=0;" vertex="1" parent="jOX8B1E6yKh5dsAMCE3R-48">
          <mxGeometry y="484" width="240" height="26" as="geometry" />
        </mxCell>
        <mxCell id="8CnTDP2FAJpPbmEVU6To-16" value="# Codigo_MDP INT" style="text;align=left;verticalAlign=top;spacingLeft=4;spacingRight=4;overflow=hidden;rotatable=0;points=[[0,0.5],[1,0.5]];portConstraint=eastwest;" vertex="1" parent="jOX8B1E6yKh5dsAMCE3R-48">
          <mxGeometry y="510" width="240" height="26" as="geometry" />
        </mxCell>
        <mxCell id="jOX8B1E6yKh5dsAMCE3R-75" value="CARGO" style="swimlane;fontStyle=2;align=center;verticalAlign=top;childLayout=stackLayout;horizontal=1;startSize=26;horizontalStack=0;resizeParent=1;resizeLast=0;collapsible=1;marginBottom=0;rounded=0;shadow=0;strokeWidth=1;" vertex="1" parent="WIyWlLk6GJQsqaUBKTNV-1">
          <mxGeometry x="1170" y="660" width="200" height="400" as="geometry">
            <mxRectangle x="230" y="140" width="160" height="26" as="alternateBounds" />
          </mxGeometry>
        </mxCell>
        <mxCell id="jOX8B1E6yKh5dsAMCE3R-76" value="# id_cargo INT" style="text;align=left;verticalAlign=top;spacingLeft=4;spacingRight=4;overflow=hidden;rotatable=0;points=[[0,0.5],[1,0.5]];portConstraint=eastwest;" vertex="1" parent="jOX8B1E6yKh5dsAMCE3R-75">
          <mxGeometry y="26" width="200" height="26" as="geometry" />
        </mxCell>
        <mxCell id="jOX8B1E6yKh5dsAMCE3R-77" value="+ cargo Varchar" style="text;align=left;verticalAlign=top;spacingLeft=4;spacingRight=4;overflow=hidden;rotatable=0;points=[[0,0.5],[1,0.5]];portConstraint=eastwest;rounded=0;shadow=0;html=0;" vertex="1" parent="jOX8B1E6yKh5dsAMCE3R-75">
          <mxGeometry y="52" width="200" height="26" as="geometry" />
        </mxCell>
        <mxCell id="jOX8B1E6yKh5dsAMCE3R-78" value="- desc_cargo" style="text;align=left;verticalAlign=top;spacingLeft=4;spacingRight=4;overflow=hidden;rotatable=0;points=[[0,0.5],[1,0.5]];portConstraint=eastwest;rounded=0;shadow=0;html=0;" vertex="1" parent="jOX8B1E6yKh5dsAMCE3R-75">
          <mxGeometry y="78" width="200" height="26" as="geometry" />
        </mxCell>
        <mxCell id="jOX8B1E6yKh5dsAMCE3R-81" value="" style="line;html=1;strokeWidth=1;align=left;verticalAlign=middle;spacingTop=-1;spacingLeft=3;spacingRight=3;rotatable=0;labelPosition=right;points=[];portConstraint=eastwest;" vertex="1" parent="jOX8B1E6yKh5dsAMCE3R-75">
          <mxGeometry y="104" width="200" height="18" as="geometry" />
        </mxCell>
        <mxCell id="jOX8B1E6yKh5dsAMCE3R-83" value="Consultar ()" style="text;align=left;verticalAlign=top;spacingLeft=4;spacingRight=4;overflow=hidden;rotatable=0;points=[[0,0.5],[1,0.5]];portConstraint=eastwest;rounded=0;shadow=0;html=0;" vertex="1" parent="jOX8B1E6yKh5dsAMCE3R-75">
          <mxGeometry y="122" width="200" height="26" as="geometry" />
        </mxCell>
        <mxCell id="jOX8B1E6yKh5dsAMCE3R-85" value="Modificar ()" style="text;align=left;verticalAlign=top;spacingLeft=4;spacingRight=4;overflow=hidden;rotatable=0;points=[[0,0.5],[1,0.5]];portConstraint=eastwest;rounded=0;shadow=0;html=0;" vertex="1" parent="jOX8B1E6yKh5dsAMCE3R-75">
          <mxGeometry y="148" width="200" height="26" as="geometry" />
        </mxCell>
        <mxCell id="jOX8B1E6yKh5dsAMCE3R-175" value="Eliminar ()" style="text;align=left;verticalAlign=top;spacingLeft=4;spacingRight=4;overflow=hidden;rotatable=0;points=[[0,0.5],[1,0.5]];portConstraint=eastwest;rounded=0;shadow=0;html=0;" vertex="1" parent="jOX8B1E6yKh5dsAMCE3R-75">
          <mxGeometry y="174" width="200" height="26" as="geometry" />
        </mxCell>
        <mxCell id="jOX8B1E6yKh5dsAMCE3R-174" value="Insertar ()&#xa;" style="text;align=left;verticalAlign=top;spacingLeft=4;spacingRight=4;overflow=hidden;rotatable=0;points=[[0,0.5],[1,0.5]];portConstraint=eastwest;rounded=0;shadow=0;html=0;" vertex="1" parent="jOX8B1E6yKh5dsAMCE3R-75">
          <mxGeometry y="200" width="200" height="26" as="geometry" />
        </mxCell>
        <mxCell id="jOX8B1E6yKh5dsAMCE3R-200" value="" style="line;html=1;strokeWidth=1;align=left;verticalAlign=middle;spacingTop=-1;spacingLeft=3;spacingRight=3;rotatable=0;labelPosition=right;points=[];portConstraint=eastwest;" vertex="1" parent="jOX8B1E6yKh5dsAMCE3R-75">
          <mxGeometry y="226" width="200" height="18" as="geometry" />
        </mxCell>
        <mxCell id="8CnTDP2FAJpPbmEVU6To-18" value="# Doc_Usu INT" style="text;align=left;verticalAlign=top;spacingLeft=4;spacingRight=4;overflow=hidden;rotatable=0;points=[[0,0.5],[1,0.5]];portConstraint=eastwest;" vertex="1" parent="jOX8B1E6yKh5dsAMCE3R-75">
          <mxGeometry y="244" width="200" height="26" as="geometry" />
        </mxCell>
        <mxCell id="jOX8B1E6yKh5dsAMCE3R-227" value="# Nombre_Usu  VARCHAR" style="text;align=left;verticalAlign=top;spacingLeft=4;spacingRight=4;overflow=hidden;rotatable=0;points=[[0,0.5],[1,0.5]];portConstraint=eastwest;rounded=0;shadow=0;html=0;" vertex="1" parent="jOX8B1E6yKh5dsAMCE3R-75">
          <mxGeometry y="270" width="200" height="26" as="geometry" />
        </mxCell>
        <mxCell id="jOX8B1E6yKh5dsAMCE3R-230" value="# Apellido_Usu  VARCHAR" style="text;align=left;verticalAlign=top;spacingLeft=4;spacingRight=4;overflow=hidden;rotatable=0;points=[[0,0.5],[1,0.5]];portConstraint=eastwest;rounded=0;shadow=0;html=0;" vertex="1" parent="jOX8B1E6yKh5dsAMCE3R-75">
          <mxGeometry y="296" width="200" height="26" as="geometry" />
        </mxCell>
        <mxCell id="jOX8B1E6yKh5dsAMCE3R-228" value="+ Telefono_Usu INT" style="text;align=left;verticalAlign=top;spacingLeft=4;spacingRight=4;overflow=hidden;rotatable=0;points=[[0,0.5],[1,0.5]];portConstraint=eastwest;rounded=0;shadow=0;html=0;" vertex="1" parent="jOX8B1E6yKh5dsAMCE3R-75">
          <mxGeometry y="322" width="200" height="26" as="geometry" />
        </mxCell>
        <mxCell id="jOX8B1E6yKh5dsAMCE3R-229" value="+ Direccion_Usu  VARCHAR" style="text;align=left;verticalAlign=top;spacingLeft=4;spacingRight=4;overflow=hidden;rotatable=0;points=[[0,0.5],[1,0.5]];portConstraint=eastwest;rounded=0;shadow=0;html=0;" vertex="1" parent="jOX8B1E6yKh5dsAMCE3R-75">
          <mxGeometry y="348" width="200" height="26" as="geometry" />
        </mxCell>
        <mxCell id="jOX8B1E6yKh5dsAMCE3R-226" value="# Codigo_Fac INT" style="text;align=left;verticalAlign=top;spacingLeft=4;spacingRight=4;overflow=hidden;rotatable=0;points=[[0,0.5],[1,0.5]];portConstraint=eastwest;" vertex="1" parent="jOX8B1E6yKh5dsAMCE3R-75">
          <mxGeometry y="374" width="200" height="26" as="geometry" />
        </mxCell>
        <mxCell id="jOX8B1E6yKh5dsAMCE3R-86" value="Contratos" style="swimlane;fontStyle=2;align=center;verticalAlign=top;childLayout=stackLayout;horizontal=1;startSize=26;horizontalStack=0;resizeParent=1;resizeLast=0;collapsible=1;marginBottom=0;rounded=0;shadow=0;strokeWidth=1;" vertex="1" parent="WIyWlLk6GJQsqaUBKTNV-1">
          <mxGeometry x="760" y="640" width="200" height="516" as="geometry">
            <mxRectangle x="230" y="140" width="160" height="26" as="alternateBounds" />
          </mxGeometry>
        </mxCell>
        <mxCell id="jOX8B1E6yKh5dsAMCE3R-87" value="# id_contrato INT&#xa;" style="text;align=left;verticalAlign=top;spacingLeft=4;spacingRight=4;overflow=hidden;rotatable=0;points=[[0,0.5],[1,0.5]];portConstraint=eastwest;" vertex="1" parent="jOX8B1E6yKh5dsAMCE3R-86">
          <mxGeometry y="26" width="200" height="26" as="geometry" />
        </mxCell>
        <mxCell id="jOX8B1E6yKh5dsAMCE3R-89" value="+ fecha_incio DATE" style="text;align=left;verticalAlign=top;spacingLeft=4;spacingRight=4;overflow=hidden;rotatable=0;points=[[0,0.5],[1,0.5]];portConstraint=eastwest;rounded=0;shadow=0;html=0;" vertex="1" parent="jOX8B1E6yKh5dsAMCE3R-86">
          <mxGeometry y="52" width="200" height="26" as="geometry" />
        </mxCell>
        <mxCell id="jOX8B1E6yKh5dsAMCE3R-90" value="+ fecha_final DATE" style="text;align=left;verticalAlign=top;spacingLeft=4;spacingRight=4;overflow=hidden;rotatable=0;points=[[0,0.5],[1,0.5]];portConstraint=eastwest;rounded=0;shadow=0;html=0;" vertex="1" parent="jOX8B1E6yKh5dsAMCE3R-86">
          <mxGeometry y="78" width="200" height="26" as="geometry" />
        </mxCell>
        <mxCell id="Fc5rwWHIgyGiWodtbmPt-10" value="+ estado_cont VARCHAR" style="text;align=left;verticalAlign=top;spacingLeft=4;spacingRight=4;overflow=hidden;rotatable=0;points=[[0,0.5],[1,0.5]];portConstraint=eastwest;rounded=0;shadow=0;html=0;" vertex="1" parent="jOX8B1E6yKh5dsAMCE3R-86">
          <mxGeometry y="104" width="200" height="26" as="geometry" />
        </mxCell>
        <mxCell id="jOX8B1E6yKh5dsAMCE3R-129" value="+ tipo_cont VARCHAR&#xa;" style="text;align=left;verticalAlign=top;spacingLeft=4;spacingRight=4;overflow=hidden;rotatable=0;points=[[0,0.5],[1,0.5]];portConstraint=eastwest;rounded=0;shadow=0;html=0;" vertex="1" parent="jOX8B1E6yKh5dsAMCE3R-86">
          <mxGeometry y="130" width="200" height="20" as="geometry" />
        </mxCell>
        <mxCell id="jOX8B1E6yKh5dsAMCE3R-92" value="" style="line;html=1;strokeWidth=1;align=left;verticalAlign=middle;spacingTop=-1;spacingLeft=3;spacingRight=3;rotatable=0;labelPosition=right;points=[];portConstraint=eastwest;" vertex="1" parent="jOX8B1E6yKh5dsAMCE3R-86">
          <mxGeometry y="150" width="200" height="14" as="geometry" />
        </mxCell>
        <mxCell id="jOX8B1E6yKh5dsAMCE3R-94" value="Consultar ()" style="text;align=left;verticalAlign=top;spacingLeft=4;spacingRight=4;overflow=hidden;rotatable=0;points=[[0,0.5],[1,0.5]];portConstraint=eastwest;rounded=0;shadow=0;html=0;" vertex="1" parent="jOX8B1E6yKh5dsAMCE3R-86">
          <mxGeometry y="164" width="200" height="26" as="geometry" />
        </mxCell>
        <mxCell id="jOX8B1E6yKh5dsAMCE3R-96" value="Modificar ()" style="text;align=left;verticalAlign=top;spacingLeft=4;spacingRight=4;overflow=hidden;rotatable=0;points=[[0,0.5],[1,0.5]];portConstraint=eastwest;rounded=0;shadow=0;html=0;" vertex="1" parent="jOX8B1E6yKh5dsAMCE3R-86">
          <mxGeometry y="190" width="200" height="26" as="geometry" />
        </mxCell>
        <mxCell id="jOX8B1E6yKh5dsAMCE3R-127" value="Eliminar ()" style="text;align=left;verticalAlign=top;spacingLeft=4;spacingRight=4;overflow=hidden;rotatable=0;points=[[0,0.5],[1,0.5]];portConstraint=eastwest;rounded=0;shadow=0;html=0;" vertex="1" parent="jOX8B1E6yKh5dsAMCE3R-86">
          <mxGeometry y="216" width="200" height="26" as="geometry" />
        </mxCell>
        <mxCell id="jOX8B1E6yKh5dsAMCE3R-126" value="Insertar ()" style="text;align=left;verticalAlign=top;spacingLeft=4;spacingRight=4;overflow=hidden;rotatable=0;points=[[0,0.5],[1,0.5]];portConstraint=eastwest;rounded=0;shadow=0;html=0;" vertex="1" parent="jOX8B1E6yKh5dsAMCE3R-86">
          <mxGeometry y="242" width="200" height="26" as="geometry" />
        </mxCell>
        <mxCell id="jOX8B1E6yKh5dsAMCE3R-201" value="" style="line;html=1;strokeWidth=1;align=left;verticalAlign=middle;spacingTop=-1;spacingLeft=3;spacingRight=3;rotatable=0;labelPosition=right;points=[];portConstraint=eastwest;" vertex="1" parent="jOX8B1E6yKh5dsAMCE3R-86">
          <mxGeometry y="268" width="200" height="14" as="geometry" />
        </mxCell>
        <mxCell id="jOX8B1E6yKh5dsAMCE3R-262" value="# N_documento INT&#xa;" style="text;align=left;verticalAlign=top;spacingLeft=4;spacingRight=4;overflow=hidden;rotatable=0;points=[[0,0.5],[1,0.5]];portConstraint=eastwest;" vertex="1" parent="jOX8B1E6yKh5dsAMCE3R-86">
          <mxGeometry y="282" width="200" height="26" as="geometry" />
        </mxCell>
        <mxCell id="jOX8B1E6yKh5dsAMCE3R-256" value="# name VARCHAR    " style="text;align=left;verticalAlign=top;spacingLeft=4;spacingRight=4;overflow=hidden;rotatable=0;points=[[0,0.5],[1,0.5]];portConstraint=eastwest;rounded=0;shadow=0;html=0;" vertex="1" parent="jOX8B1E6yKh5dsAMCE3R-86">
          <mxGeometry y="308" width="200" height="26" as="geometry" />
        </mxCell>
        <mxCell id="jOX8B1E6yKh5dsAMCE3R-260" value="# id_hvida INT" style="text;align=left;verticalAlign=top;spacingLeft=4;spacingRight=4;overflow=hidden;rotatable=0;points=[[0,0.5],[1,0.5]];portConstraint=eastwest;rounded=0;shadow=0;html=0;" vertex="1" parent="jOX8B1E6yKh5dsAMCE3R-86">
          <mxGeometry y="334" width="200" height="26" as="geometry" />
        </mxCell>
        <mxCell id="jOX8B1E6yKh5dsAMCE3R-258" value="+ Telefono_Usu  int" style="text;align=left;verticalAlign=top;spacingLeft=4;spacingRight=4;overflow=hidden;rotatable=0;points=[[0,0.5],[1,0.5]];portConstraint=eastwest;rounded=0;shadow=0;html=0;" vertex="1" parent="jOX8B1E6yKh5dsAMCE3R-86">
          <mxGeometry y="360" width="200" height="26" as="geometry" />
        </mxCell>
        <mxCell id="Fc5rwWHIgyGiWodtbmPt-1" value="+ Correo VARCHAR" style="text;align=left;verticalAlign=top;spacingLeft=4;spacingRight=4;overflow=hidden;rotatable=0;points=[[0,0.5],[1,0.5]];portConstraint=eastwest;rounded=0;shadow=0;html=0;" vertex="1" parent="jOX8B1E6yKh5dsAMCE3R-86">
          <mxGeometry y="386" width="200" height="26" as="geometry" />
        </mxCell>
        <mxCell id="Fc5rwWHIgyGiWodtbmPt-7" value="+ experiencia VARCHAR" style="text;align=left;verticalAlign=top;spacingLeft=4;spacingRight=4;overflow=hidden;rotatable=0;points=[[0,0.5],[1,0.5]];portConstraint=eastwest;rounded=0;shadow=0;html=0;" vertex="1" parent="jOX8B1E6yKh5dsAMCE3R-86">
          <mxGeometry y="412" width="200" height="26" as="geometry" />
        </mxCell>
        <mxCell id="Fc5rwWHIgyGiWodtbmPt-8" value="+ Estudios VARCHAR" style="text;align=left;verticalAlign=top;spacingLeft=4;spacingRight=4;overflow=hidden;rotatable=0;points=[[0,0.5],[1,0.5]];portConstraint=eastwest;rounded=0;shadow=0;html=0;" vertex="1" parent="jOX8B1E6yKh5dsAMCE3R-86">
          <mxGeometry y="438" width="200" height="26" as="geometry" />
        </mxCell>
        <mxCell id="jOX8B1E6yKh5dsAMCE3R-166" value="" style="endArrow=none;html=1;rounded=0;fontSize=17;exitX=0.25;exitY=0;exitDx=0;exitDy=0;entryX=0.5;entryY=1;entryDx=0;entryDy=0;" edge="1" parent="WIyWlLk6GJQsqaUBKTNV-1" source="jOX8B1E6yKh5dsAMCE3R-33" target="zkfFHV4jXpPFQw0GAbJ--0">
          <mxGeometry width="50" height="50" relative="1" as="geometry">
            <mxPoint x="150" y="500" as="sourcePoint" />
            <mxPoint x="160" y="500" as="targetPoint" />
            <Array as="points" />
          </mxGeometry>
        </mxCell>
        <mxCell id="jOX8B1E6yKh5dsAMCE3R-183" value="*" style="edgeLabel;html=1;align=center;verticalAlign=middle;resizable=0;points=[];fontSize=17;" vertex="1" connectable="0" parent="jOX8B1E6yKh5dsAMCE3R-166">
          <mxGeometry x="0.5535" y="2" relative="1" as="geometry">
            <mxPoint as="offset" />
          </mxGeometry>
        </mxCell>
        <mxCell id="jOX8B1E6yKh5dsAMCE3R-184" value="1" style="edgeLabel;html=1;align=center;verticalAlign=middle;resizable=0;points=[];fontSize=17;" vertex="1" connectable="0" parent="jOX8B1E6yKh5dsAMCE3R-166">
          <mxGeometry x="-0.4527" y="-2" relative="1" as="geometry">
            <mxPoint as="offset" />
          </mxGeometry>
        </mxCell>
        <mxCell id="jOX8B1E6yKh5dsAMCE3R-167" value="" style="endArrow=none;html=1;rounded=0;fontSize=17;exitX=1;exitY=0.5;exitDx=0;exitDy=0;" edge="1" parent="WIyWlLk6GJQsqaUBKTNV-1">
          <mxGeometry width="50" height="50" relative="1" as="geometry">
            <mxPoint x="260" y="205" as="sourcePoint" />
            <mxPoint x="410" y="205" as="targetPoint" />
          </mxGeometry>
        </mxCell>
        <mxCell id="jOX8B1E6yKh5dsAMCE3R-179" value="*" style="edgeLabel;html=1;align=center;verticalAlign=middle;resizable=0;points=[];fontSize=17;" vertex="1" connectable="0" parent="jOX8B1E6yKh5dsAMCE3R-167">
          <mxGeometry x="-0.4726" y="2" relative="1" as="geometry">
            <mxPoint as="offset" />
          </mxGeometry>
        </mxCell>
        <mxCell id="jOX8B1E6yKh5dsAMCE3R-180" value="1" style="edgeLabel;html=1;align=center;verticalAlign=middle;resizable=0;points=[];fontSize=24;" vertex="1" connectable="0" parent="jOX8B1E6yKh5dsAMCE3R-167">
          <mxGeometry x="0.437" relative="1" as="geometry">
            <mxPoint as="offset" />
          </mxGeometry>
        </mxCell>
        <mxCell id="jOX8B1E6yKh5dsAMCE3R-169" value="" style="endArrow=none;html=1;rounded=0;fontSize=17;entryX=0;entryY=0.5;entryDx=0;entryDy=0;exitX=1;exitY=0.5;exitDx=0;exitDy=0;" edge="1" parent="WIyWlLk6GJQsqaUBKTNV-1" source="jOX8B1E6yKh5dsAMCE3R-38" target="53rKh5pQGC1R5wsvCNT7-80">
          <mxGeometry width="50" height="50" relative="1" as="geometry">
            <mxPoint x="340" y="577" as="sourcePoint" />
            <mxPoint x="390" y="527" as="targetPoint" />
          </mxGeometry>
        </mxCell>
        <mxCell id="jOX8B1E6yKh5dsAMCE3R-191" value="1" style="edgeLabel;html=1;align=center;verticalAlign=middle;resizable=0;points=[];fontSize=17;" vertex="1" connectable="0" parent="jOX8B1E6yKh5dsAMCE3R-169">
          <mxGeometry x="-0.6133" y="-4" relative="1" as="geometry">
            <mxPoint as="offset" />
          </mxGeometry>
        </mxCell>
        <mxCell id="jOX8B1E6yKh5dsAMCE3R-192" value="1" style="edgeLabel;html=1;align=center;verticalAlign=middle;resizable=0;points=[];fontSize=17;" vertex="1" connectable="0" parent="jOX8B1E6yKh5dsAMCE3R-169">
          <mxGeometry x="0.48" y="-2" relative="1" as="geometry">
            <mxPoint y="2" as="offset" />
          </mxGeometry>
        </mxCell>
        <mxCell id="jOX8B1E6yKh5dsAMCE3R-173" value="" style="endArrow=none;html=1;rounded=0;fontSize=17;exitX=0.989;exitY=1.077;exitDx=0;exitDy=0;exitPerimeter=0;entryX=0;entryY=0.75;entryDx=0;entryDy=0;entryPerimeter=0;" edge="1" parent="WIyWlLk6GJQsqaUBKTNV-1" source="jOX8B1E6yKh5dsAMCE3R-134" target="zkfFHV4jXpPFQw0GAbJ--23">
          <mxGeometry width="50" height="50" relative="1" as="geometry">
            <mxPoint x="560" y="220" as="sourcePoint" />
            <mxPoint x="640" y="188" as="targetPoint" />
          </mxGeometry>
        </mxCell>
        <mxCell id="jOX8B1E6yKh5dsAMCE3R-181" value="*" style="edgeLabel;html=1;align=center;verticalAlign=middle;resizable=0;points=[];fontSize=24;" vertex="1" connectable="0" parent="jOX8B1E6yKh5dsAMCE3R-173">
          <mxGeometry x="-0.636" relative="1" as="geometry">
            <mxPoint as="offset" />
          </mxGeometry>
        </mxCell>
        <mxCell id="jOX8B1E6yKh5dsAMCE3R-182" value="1" style="edgeLabel;html=1;align=center;verticalAlign=middle;resizable=0;points=[];fontSize=17;" vertex="1" connectable="0" parent="jOX8B1E6yKh5dsAMCE3R-173">
          <mxGeometry x="0.5001" y="-1" relative="1" as="geometry">
            <mxPoint as="offset" />
          </mxGeometry>
        </mxCell>
        <mxCell id="jOX8B1E6yKh5dsAMCE3R-186" value="" style="endArrow=none;html=1;rounded=0;fontSize=17;entryX=0.25;entryY=1;entryDx=0;entryDy=0;exitX=1;exitY=0.5;exitDx=0;exitDy=0;" edge="1" parent="WIyWlLk6GJQsqaUBKTNV-1" source="jOX8B1E6yKh5dsAMCE3R-37" target="jOX8B1E6yKh5dsAMCE3R-23">
          <mxGeometry width="50" height="50" relative="1" as="geometry">
            <mxPoint x="310" y="600" as="sourcePoint" />
            <mxPoint x="440" y="380" as="targetPoint" />
            <Array as="points">
              <mxPoint x="415" y="600" />
            </Array>
          </mxGeometry>
        </mxCell>
        <mxCell id="jOX8B1E6yKh5dsAMCE3R-189" value="*" style="edgeLabel;html=1;align=center;verticalAlign=middle;resizable=0;points=[];fontSize=24;" vertex="1" connectable="0" parent="jOX8B1E6yKh5dsAMCE3R-186">
          <mxGeometry x="0.6799" y="-3" relative="1" as="geometry">
            <mxPoint as="offset" />
          </mxGeometry>
        </mxCell>
        <mxCell id="jOX8B1E6yKh5dsAMCE3R-190" value="1" style="edgeLabel;html=1;align=center;verticalAlign=middle;resizable=0;points=[];fontSize=17;" vertex="1" connectable="0" parent="jOX8B1E6yKh5dsAMCE3R-186">
          <mxGeometry x="-0.7473" y="-2" relative="1" as="geometry">
            <mxPoint as="offset" />
          </mxGeometry>
        </mxCell>
        <mxCell id="7QewovfHQO4eRIdTPmeA-1" value="" style="endArrow=none;html=1;rounded=0;fontSize=17;entryX=0.5;entryY=0;entryDx=0;entryDy=0;exitX=0.5;exitY=1;exitDx=0;exitDy=0;" edge="1" parent="WIyWlLk6GJQsqaUBKTNV-1" source="zkfFHV4jXpPFQw0GAbJ--17" target="jOX8B1E6yKh5dsAMCE3R-86">
          <mxGeometry width="50" height="50" relative="1" as="geometry">
            <mxPoint x="940" y="580" as="sourcePoint" />
            <mxPoint x="820" y="386" as="targetPoint" />
          </mxGeometry>
        </mxCell>
        <mxCell id="7QewovfHQO4eRIdTPmeA-2" value="*" style="edgeLabel;html=1;align=center;verticalAlign=middle;resizable=0;points=[];fontSize=24;" connectable="0" vertex="1" parent="7QewovfHQO4eRIdTPmeA-1">
          <mxGeometry x="-0.636" relative="1" as="geometry">
            <mxPoint as="offset" />
          </mxGeometry>
        </mxCell>
        <mxCell id="7QewovfHQO4eRIdTPmeA-3" value="1" style="edgeLabel;html=1;align=center;verticalAlign=middle;resizable=0;points=[];fontSize=17;" connectable="0" vertex="1" parent="7QewovfHQO4eRIdTPmeA-1">
          <mxGeometry x="0.5001" y="-1" relative="1" as="geometry">
            <mxPoint as="offset" />
          </mxGeometry>
        </mxCell>
        <mxCell id="7QewovfHQO4eRIdTPmeA-39" value="Paz y salvo&#xa;" style="swimlane;fontStyle=0;align=center;verticalAlign=top;childLayout=stackLayout;horizontal=1;startSize=26;horizontalStack=0;resizeParent=1;resizeLast=0;collapsible=1;marginBottom=0;rounded=0;shadow=0;strokeWidth=1;" vertex="1" parent="WIyWlLk6GJQsqaUBKTNV-1">
          <mxGeometry x="750" y="1473" width="160" height="354" as="geometry">
            <mxRectangle x="550" y="140" width="160" height="26" as="alternateBounds" />
          </mxGeometry>
        </mxCell>
        <mxCell id="7QewovfHQO4eRIdTPmeA-40" value="# id_pys INT&#xa;" style="text;align=left;verticalAlign=top;spacingLeft=4;spacingRight=4;overflow=hidden;rotatable=0;points=[[0,0.5],[1,0.5]];portConstraint=eastwest;" vertex="1" parent="7QewovfHQO4eRIdTPmeA-39">
          <mxGeometry y="26" width="160" height="26" as="geometry" />
        </mxCell>
        <mxCell id="7QewovfHQO4eRIdTPmeA-41" value="+ Fecha_emision" style="text;align=left;verticalAlign=top;spacingLeft=4;spacingRight=4;overflow=hidden;rotatable=0;points=[[0,0.5],[1,0.5]];portConstraint=eastwest;rounded=0;shadow=0;html=0;" vertex="1" parent="7QewovfHQO4eRIdTPmeA-39">
          <mxGeometry y="52" width="160" height="26" as="geometry" />
        </mxCell>
        <mxCell id="7QewovfHQO4eRIdTPmeA-42" value="+ estado_pys Varchar" style="text;align=left;verticalAlign=top;spacingLeft=4;spacingRight=4;overflow=hidden;rotatable=0;points=[[0,0.5],[1,0.5]];portConstraint=eastwest;" vertex="1" parent="7QewovfHQO4eRIdTPmeA-39">
          <mxGeometry y="78" width="160" height="26" as="geometry" />
        </mxCell>
        <mxCell id="7QewovfHQO4eRIdTPmeA-43" value="+ descripcion_pys Varchar" style="text;align=left;verticalAlign=top;spacingLeft=4;spacingRight=4;overflow=hidden;rotatable=0;points=[[0,0.5],[1,0.5]];portConstraint=eastwest;" vertex="1" parent="7QewovfHQO4eRIdTPmeA-39">
          <mxGeometry y="104" width="160" height="26" as="geometry" />
        </mxCell>
        <mxCell id="7QewovfHQO4eRIdTPmeA-44" value="" style="line;html=1;strokeWidth=1;align=left;verticalAlign=middle;spacingTop=-1;spacingLeft=3;spacingRight=3;rotatable=0;labelPosition=right;points=[];portConstraint=eastwest;" vertex="1" parent="7QewovfHQO4eRIdTPmeA-39">
          <mxGeometry y="130" width="160" height="8" as="geometry" />
        </mxCell>
        <mxCell id="7QewovfHQO4eRIdTPmeA-45" value="Insertar ()" style="text;align=left;verticalAlign=top;spacingLeft=4;spacingRight=4;overflow=hidden;rotatable=0;points=[[0,0.5],[1,0.5]];portConstraint=eastwest;" vertex="1" parent="7QewovfHQO4eRIdTPmeA-39">
          <mxGeometry y="138" width="160" height="26" as="geometry" />
        </mxCell>
        <mxCell id="7QewovfHQO4eRIdTPmeA-46" value="Consultar ()" style="text;align=left;verticalAlign=top;spacingLeft=4;spacingRight=4;overflow=hidden;rotatable=0;points=[[0,0.5],[1,0.5]];portConstraint=eastwest;" vertex="1" parent="7QewovfHQO4eRIdTPmeA-39">
          <mxGeometry y="164" width="160" height="26" as="geometry" />
        </mxCell>
        <mxCell id="7QewovfHQO4eRIdTPmeA-47" value="Eliminar ()" style="text;align=left;verticalAlign=top;spacingLeft=4;spacingRight=4;overflow=hidden;rotatable=0;points=[[0,0.5],[1,0.5]];portConstraint=eastwest;" vertex="1" parent="7QewovfHQO4eRIdTPmeA-39">
          <mxGeometry y="190" width="160" height="26" as="geometry" />
        </mxCell>
        <mxCell id="7QewovfHQO4eRIdTPmeA-48" value="Modificar ()" style="text;align=left;verticalAlign=top;spacingLeft=4;spacingRight=4;overflow=hidden;rotatable=0;points=[[0,0.5],[1,0.5]];portConstraint=eastwest;" vertex="1" parent="7QewovfHQO4eRIdTPmeA-39">
          <mxGeometry y="216" width="160" height="26" as="geometry" />
        </mxCell>
        <mxCell id="7QewovfHQO4eRIdTPmeA-49" value="" style="line;html=1;strokeWidth=1;align=left;verticalAlign=middle;spacingTop=-1;spacingLeft=3;spacingRight=3;rotatable=0;labelPosition=right;points=[];portConstraint=eastwest;" vertex="1" parent="7QewovfHQO4eRIdTPmeA-39">
          <mxGeometry y="242" width="160" height="8" as="geometry" />
        </mxCell>
        <mxCell id="Fc5rwWHIgyGiWodtbmPt-9" value="# N_documento INT&#xa;" style="text;align=left;verticalAlign=top;spacingLeft=4;spacingRight=4;overflow=hidden;rotatable=0;points=[[0,0.5],[1,0.5]];portConstraint=eastwest;" vertex="1" parent="7QewovfHQO4eRIdTPmeA-39">
          <mxGeometry y="250" width="160" height="26" as="geometry" />
        </mxCell>
        <mxCell id="7QewovfHQO4eRIdTPmeA-50" value="# name VARCHAR    " style="text;align=left;verticalAlign=top;spacingLeft=4;spacingRight=4;overflow=hidden;rotatable=0;points=[[0,0.5],[1,0.5]];portConstraint=eastwest;rounded=0;shadow=0;html=0;" vertex="1" parent="7QewovfHQO4eRIdTPmeA-39">
          <mxGeometry y="276" width="160" height="26" as="geometry" />
        </mxCell>
        <mxCell id="jOX8B1E6yKh5dsAMCE3R-130" value="+ estado_cont VARCHAR" style="text;align=left;verticalAlign=top;spacingLeft=4;spacingRight=4;overflow=hidden;rotatable=0;points=[[0,0.5],[1,0.5]];portConstraint=eastwest;rounded=0;shadow=0;html=0;" vertex="1" parent="7QewovfHQO4eRIdTPmeA-39">
          <mxGeometry y="302" width="160" height="26" as="geometry" />
        </mxCell>
        <mxCell id="7QewovfHQO4eRIdTPmeA-51" value="+ Correo VARCHAR" style="text;align=left;verticalAlign=top;spacingLeft=4;spacingRight=4;overflow=hidden;rotatable=0;points=[[0,0.5],[1,0.5]];portConstraint=eastwest;" vertex="1" parent="7QewovfHQO4eRIdTPmeA-39">
          <mxGeometry y="328" width="160" height="26" as="geometry" />
        </mxCell>
        <mxCell id="7QewovfHQO4eRIdTPmeA-52" value="" style="endArrow=none;html=1;rounded=0;fontSize=17;entryX=0.5;entryY=0.02;entryDx=0;entryDy=0;exitX=0.5;exitY=1;exitDx=0;exitDy=0;entryPerimeter=0;" edge="1" parent="WIyWlLk6GJQsqaUBKTNV-1" source="jOX8B1E6yKh5dsAMCE3R-86" target="7QewovfHQO4eRIdTPmeA-39">
          <mxGeometry width="50" height="50" relative="1" as="geometry">
            <mxPoint x="750" y="860" as="sourcePoint" />
            <mxPoint x="740" y="1040" as="targetPoint" />
          </mxGeometry>
        </mxCell>
        <mxCell id="7QewovfHQO4eRIdTPmeA-53" value="1" style="edgeLabel;html=1;align=center;verticalAlign=middle;resizable=0;points=[];fontSize=24;" connectable="0" vertex="1" parent="7QewovfHQO4eRIdTPmeA-52">
          <mxGeometry x="-0.636" relative="1" as="geometry">
            <mxPoint as="offset" />
          </mxGeometry>
        </mxCell>
        <mxCell id="7QewovfHQO4eRIdTPmeA-54" value="*" style="edgeLabel;html=1;align=center;verticalAlign=middle;resizable=0;points=[];fontSize=17;" connectable="0" vertex="1" parent="7QewovfHQO4eRIdTPmeA-52">
          <mxGeometry x="0.5001" y="-1" relative="1" as="geometry">
            <mxPoint as="offset" />
          </mxGeometry>
        </mxCell>
        <mxCell id="7QewovfHQO4eRIdTPmeA-55" value="" style="endArrow=none;html=1;rounded=0;fontSize=17;entryX=0.02;entryY=0.611;entryDx=0;entryDy=0;exitX=0.995;exitY=1.01;exitDx=0;exitDy=0;exitPerimeter=0;entryPerimeter=0;" edge="1" parent="WIyWlLk6GJQsqaUBKTNV-1" source="jOX8B1E6yKh5dsAMCE3R-126" target="jOX8B1E6yKh5dsAMCE3R-200">
          <mxGeometry width="50" height="50" relative="1" as="geometry">
            <mxPoint x="1120" y="808" as="sourcePoint" />
            <mxPoint x="1110" y="988" as="targetPoint" />
          </mxGeometry>
        </mxCell>
        <mxCell id="7QewovfHQO4eRIdTPmeA-56" value="*" style="edgeLabel;html=1;align=center;verticalAlign=middle;resizable=0;points=[];fontSize=24;" connectable="0" vertex="1" parent="7QewovfHQO4eRIdTPmeA-55">
          <mxGeometry x="-0.636" relative="1" as="geometry">
            <mxPoint as="offset" />
          </mxGeometry>
        </mxCell>
        <mxCell id="7QewovfHQO4eRIdTPmeA-57" value="1" style="edgeLabel;html=1;align=center;verticalAlign=middle;resizable=0;points=[];fontSize=17;" connectable="0" vertex="1" parent="7QewovfHQO4eRIdTPmeA-55">
          <mxGeometry x="0.5001" y="-1" relative="1" as="geometry">
            <mxPoint as="offset" />
          </mxGeometry>
        </mxCell>
        <mxCell id="7QewovfHQO4eRIdTPmeA-60" value="" style="endArrow=none;html=1;rounded=0;fontSize=17;exitX=-0.004;exitY=1.192;exitDx=0;exitDy=0;exitPerimeter=0;entryX=1;entryY=0.5;entryDx=0;entryDy=0;" edge="1" parent="WIyWlLk6GJQsqaUBKTNV-1" source="jOX8B1E6yKh5dsAMCE3R-59" target="7QewovfHQO4eRIdTPmeA-72">
          <mxGeometry width="50" height="50" relative="1" as="geometry">
            <mxPoint x="1340" y="624.0000000000002" as="sourcePoint" />
            <mxPoint x="1360" y="280" as="targetPoint" />
          </mxGeometry>
        </mxCell>
        <mxCell id="7QewovfHQO4eRIdTPmeA-61" value="*" style="edgeLabel;html=1;align=center;verticalAlign=middle;resizable=0;points=[];fontSize=24;" connectable="0" vertex="1" parent="7QewovfHQO4eRIdTPmeA-60">
          <mxGeometry x="-0.636" relative="1" as="geometry">
            <mxPoint as="offset" />
          </mxGeometry>
        </mxCell>
        <mxCell id="7QewovfHQO4eRIdTPmeA-62" value="1" style="edgeLabel;html=1;align=center;verticalAlign=middle;resizable=0;points=[];fontSize=17;" connectable="0" vertex="1" parent="7QewovfHQO4eRIdTPmeA-60">
          <mxGeometry x="0.5001" y="-1" relative="1" as="geometry">
            <mxPoint as="offset" />
          </mxGeometry>
        </mxCell>
        <mxCell id="7QewovfHQO4eRIdTPmeA-63" value="" style="endArrow=none;html=1;rounded=0;fontSize=17;entryX=0;entryY=0;entryDx=0;entryDy=0;exitX=1;exitY=0.5;exitDx=0;exitDy=0;entryPerimeter=0;" edge="1" parent="WIyWlLk6GJQsqaUBKTNV-1" target="8CnTDP2FAJpPbmEVU6To-17">
          <mxGeometry width="50" height="50" relative="1" as="geometry">
            <mxPoint x="1380" y="883" as="sourcePoint" />
            <mxPoint x="1550" y="499" as="targetPoint" />
          </mxGeometry>
        </mxCell>
        <mxCell id="7QewovfHQO4eRIdTPmeA-64" value="*" style="edgeLabel;html=1;align=center;verticalAlign=middle;resizable=0;points=[];fontSize=24;" connectable="0" vertex="1" parent="7QewovfHQO4eRIdTPmeA-63">
          <mxGeometry x="-0.636" relative="1" as="geometry">
            <mxPoint as="offset" />
          </mxGeometry>
        </mxCell>
        <mxCell id="7QewovfHQO4eRIdTPmeA-65" value="1" style="edgeLabel;html=1;align=center;verticalAlign=middle;resizable=0;points=[];fontSize=17;" connectable="0" vertex="1" parent="7QewovfHQO4eRIdTPmeA-63">
          <mxGeometry x="0.5001" y="-1" relative="1" as="geometry">
            <mxPoint as="offset" />
          </mxGeometry>
        </mxCell>
        <mxCell id="7QewovfHQO4eRIdTPmeA-66" value="Ausencia" style="swimlane;fontStyle=0;align=center;verticalAlign=top;childLayout=stackLayout;horizontal=1;startSize=26;horizontalStack=0;resizeParent=1;resizeLast=0;collapsible=1;marginBottom=0;rounded=0;shadow=0;strokeWidth=1;" vertex="1" parent="WIyWlLk6GJQsqaUBKTNV-1">
          <mxGeometry x="1420" y="200" width="160" height="310" as="geometry">
            <mxRectangle x="550" y="140" width="160" height="26" as="alternateBounds" />
          </mxGeometry>
        </mxCell>
        <mxCell id="7QewovfHQO4eRIdTPmeA-67" value="# id_ausc INT" style="text;align=left;verticalAlign=top;spacingLeft=4;spacingRight=4;overflow=hidden;rotatable=0;points=[[0,0.5],[1,0.5]];portConstraint=eastwest;" vertex="1" parent="7QewovfHQO4eRIdTPmeA-66">
          <mxGeometry y="26" width="160" height="26" as="geometry" />
        </mxCell>
        <mxCell id="7QewovfHQO4eRIdTPmeA-68" value="+ num_ausc INT" style="text;align=left;verticalAlign=top;spacingLeft=4;spacingRight=4;overflow=hidden;rotatable=0;points=[[0,0.5],[1,0.5]];portConstraint=eastwest;rounded=0;shadow=0;html=0;" vertex="1" parent="7QewovfHQO4eRIdTPmeA-66">
          <mxGeometry y="52" width="160" height="26" as="geometry" />
        </mxCell>
        <mxCell id="7QewovfHQO4eRIdTPmeA-69" value="+ Motivo_ausc TEXT" style="text;align=left;verticalAlign=top;spacingLeft=4;spacingRight=4;overflow=hidden;rotatable=0;points=[[0,0.5],[1,0.5]];portConstraint=eastwest;" vertex="1" parent="7QewovfHQO4eRIdTPmeA-66">
          <mxGeometry y="78" width="160" height="26" as="geometry" />
        </mxCell>
        <mxCell id="7QewovfHQO4eRIdTPmeA-70" value="+ Fecha_ausc DATE&#xa;" style="text;align=left;verticalAlign=top;spacingLeft=4;spacingRight=4;overflow=hidden;rotatable=0;points=[[0,0.5],[1,0.5]];portConstraint=eastwest;" vertex="1" parent="7QewovfHQO4eRIdTPmeA-66">
          <mxGeometry y="104" width="160" height="26" as="geometry" />
        </mxCell>
        <mxCell id="7QewovfHQO4eRIdTPmeA-71" value="" style="line;html=1;strokeWidth=1;align=left;verticalAlign=middle;spacingTop=-1;spacingLeft=3;spacingRight=3;rotatable=0;labelPosition=right;points=[];portConstraint=eastwest;" vertex="1" parent="7QewovfHQO4eRIdTPmeA-66">
          <mxGeometry y="130" width="160" height="8" as="geometry" />
        </mxCell>
        <mxCell id="7QewovfHQO4eRIdTPmeA-72" value="Insertar ()" style="text;align=left;verticalAlign=top;spacingLeft=4;spacingRight=4;overflow=hidden;rotatable=0;points=[[0,0.5],[1,0.5]];portConstraint=eastwest;" vertex="1" parent="7QewovfHQO4eRIdTPmeA-66">
          <mxGeometry y="138" width="160" height="26" as="geometry" />
        </mxCell>
        <mxCell id="7QewovfHQO4eRIdTPmeA-73" value="Consultar ()" style="text;align=left;verticalAlign=top;spacingLeft=4;spacingRight=4;overflow=hidden;rotatable=0;points=[[0,0.5],[1,0.5]];portConstraint=eastwest;" vertex="1" parent="7QewovfHQO4eRIdTPmeA-66">
          <mxGeometry y="164" width="160" height="26" as="geometry" />
        </mxCell>
        <mxCell id="7QewovfHQO4eRIdTPmeA-74" value="Eliminar ()" style="text;align=left;verticalAlign=top;spacingLeft=4;spacingRight=4;overflow=hidden;rotatable=0;points=[[0,0.5],[1,0.5]];portConstraint=eastwest;" vertex="1" parent="7QewovfHQO4eRIdTPmeA-66">
          <mxGeometry y="190" width="160" height="26" as="geometry" />
        </mxCell>
        <mxCell id="7QewovfHQO4eRIdTPmeA-75" value="Modificar ()" style="text;align=left;verticalAlign=top;spacingLeft=4;spacingRight=4;overflow=hidden;rotatable=0;points=[[0,0.5],[1,0.5]];portConstraint=eastwest;" vertex="1" parent="7QewovfHQO4eRIdTPmeA-66">
          <mxGeometry y="216" width="160" height="26" as="geometry" />
        </mxCell>
        <mxCell id="7QewovfHQO4eRIdTPmeA-76" value="" style="line;html=1;strokeWidth=1;align=left;verticalAlign=middle;spacingTop=-1;spacingLeft=3;spacingRight=3;rotatable=0;labelPosition=right;points=[];portConstraint=eastwest;" vertex="1" parent="7QewovfHQO4eRIdTPmeA-66">
          <mxGeometry y="242" width="160" height="8" as="geometry" />
        </mxCell>
        <mxCell id="7QewovfHQO4eRIdTPmeA-77" value="# Nombre_Cat VARCHAR" style="text;align=left;verticalAlign=top;spacingLeft=4;spacingRight=4;overflow=hidden;rotatable=0;points=[[0,0.5],[1,0.5]];portConstraint=eastwest;rounded=0;shadow=0;html=0;" vertex="1" parent="7QewovfHQO4eRIdTPmeA-66">
          <mxGeometry y="250" width="160" height="26" as="geometry" />
        </mxCell>
        <mxCell id="7QewovfHQO4eRIdTPmeA-78" value="# Codigo_Cat INT" style="text;align=left;verticalAlign=top;spacingLeft=4;spacingRight=4;overflow=hidden;rotatable=0;points=[[0,0.5],[1,0.5]];portConstraint=eastwest;" vertex="1" parent="7QewovfHQO4eRIdTPmeA-66">
          <mxGeometry y="276" width="160" height="26" as="geometry" />
        </mxCell>
        <mxCell id="53rKh5pQGC1R5wsvCNT7-30" value="Experiencia&#xa;" style="swimlane;fontStyle=0;align=center;verticalAlign=top;childLayout=stackLayout;horizontal=1;startSize=26;horizontalStack=0;resizeParent=1;resizeLast=0;collapsible=1;marginBottom=0;rounded=0;shadow=0;strokeWidth=1;" vertex="1" parent="WIyWlLk6GJQsqaUBKTNV-1">
          <mxGeometry x="100" y="1300" width="100" height="486" as="geometry">
            <mxRectangle x="550" y="140" width="160" height="26" as="alternateBounds" />
          </mxGeometry>
        </mxCell>
        <mxCell id="53rKh5pQGC1R5wsvCNT7-31" value="# id_experiencia INT" style="text;align=left;verticalAlign=top;spacingLeft=4;spacingRight=4;overflow=hidden;rotatable=0;points=[[0,0.5],[1,0.5]];portConstraint=eastwest;" vertex="1" parent="53rKh5pQGC1R5wsvCNT7-30">
          <mxGeometry y="26" width="100" height="26" as="geometry" />
        </mxCell>
        <mxCell id="53rKh5pQGC1R5wsvCNT7-32" value="+ n_empresa VARCHAR" style="text;align=left;verticalAlign=top;spacingLeft=4;spacingRight=4;overflow=hidden;rotatable=0;points=[[0,0.5],[1,0.5]];portConstraint=eastwest;rounded=0;shadow=0;html=0;" vertex="1" parent="53rKh5pQGC1R5wsvCNT7-30">
          <mxGeometry y="52" width="100" height="26" as="geometry" />
        </mxCell>
        <mxCell id="53rKh5pQGC1R5wsvCNT7-33" value="+ Descripcion TEXT" style="text;align=left;verticalAlign=top;spacingLeft=4;spacingRight=4;overflow=hidden;rotatable=0;points=[[0,0.5],[1,0.5]];portConstraint=eastwest;rounded=0;shadow=0;html=0;" vertex="1" parent="53rKh5pQGC1R5wsvCNT7-30">
          <mxGeometry y="78" width="100" height="26" as="geometry" />
        </mxCell>
        <mxCell id="53rKh5pQGC1R5wsvCNT7-34" value="+ f_inicio DATE" style="text;align=left;verticalAlign=top;spacingLeft=4;spacingRight=4;overflow=hidden;rotatable=0;points=[[0,0.5],[1,0.5]];portConstraint=eastwest;" vertex="1" parent="53rKh5pQGC1R5wsvCNT7-30">
          <mxGeometry y="104" width="100" height="26" as="geometry" />
        </mxCell>
        <mxCell id="53rKh5pQGC1R5wsvCNT7-35" value="+ f_fin DATE" style="text;align=left;verticalAlign=top;spacingLeft=4;spacingRight=4;overflow=hidden;rotatable=0;points=[[0,0.5],[1,0.5]];portConstraint=eastwest;" vertex="1" parent="53rKh5pQGC1R5wsvCNT7-30">
          <mxGeometry y="130" width="100" height="26" as="geometry" />
        </mxCell>
        <mxCell id="53rKh5pQGC1R5wsvCNT7-36" value="" style="line;html=1;strokeWidth=1;align=left;verticalAlign=middle;spacingTop=-1;spacingLeft=3;spacingRight=3;rotatable=0;labelPosition=right;points=[];portConstraint=eastwest;" vertex="1" parent="53rKh5pQGC1R5wsvCNT7-30">
          <mxGeometry y="156" width="100" height="38" as="geometry" />
        </mxCell>
        <mxCell id="53rKh5pQGC1R5wsvCNT7-37" value="+ Descripcion" style="text;align=left;verticalAlign=top;spacingLeft=4;spacingRight=4;overflow=hidden;rotatable=0;points=[[0,0.5],[1,0.5]];portConstraint=eastwest;rounded=0;shadow=0;html=0;" vertex="1" parent="53rKh5pQGC1R5wsvCNT7-30">
          <mxGeometry y="194" width="100" height="26" as="geometry" />
        </mxCell>
        <mxCell id="53rKh5pQGC1R5wsvCNT7-38" value="Insertar ()" style="text;align=left;verticalAlign=top;spacingLeft=4;spacingRight=4;overflow=hidden;rotatable=0;points=[[0,0.5],[1,0.5]];portConstraint=eastwest;rounded=0;shadow=0;html=0;" vertex="1" parent="53rKh5pQGC1R5wsvCNT7-30">
          <mxGeometry y="220" width="100" height="26" as="geometry" />
        </mxCell>
        <mxCell id="53rKh5pQGC1R5wsvCNT7-39" value="Eliminar ()" style="text;align=left;verticalAlign=top;spacingLeft=4;spacingRight=4;overflow=hidden;rotatable=0;points=[[0,0.5],[1,0.5]];portConstraint=eastwest;rounded=0;shadow=0;html=0;" vertex="1" parent="53rKh5pQGC1R5wsvCNT7-30">
          <mxGeometry y="246" width="100" height="26" as="geometry" />
        </mxCell>
        <mxCell id="53rKh5pQGC1R5wsvCNT7-40" value="Modificar ()" style="text;align=left;verticalAlign=top;spacingLeft=4;spacingRight=4;overflow=hidden;rotatable=0;points=[[0,0.5],[1,0.5]];portConstraint=eastwest;rounded=0;shadow=0;html=0;" vertex="1" parent="53rKh5pQGC1R5wsvCNT7-30">
          <mxGeometry y="272" width="100" height="26" as="geometry" />
        </mxCell>
        <mxCell id="53rKh5pQGC1R5wsvCNT7-41" value="" style="line;html=1;strokeWidth=1;align=left;verticalAlign=middle;spacingTop=-1;spacingLeft=3;spacingRight=3;rotatable=0;labelPosition=right;points=[];portConstraint=eastwest;" vertex="1" parent="53rKh5pQGC1R5wsvCNT7-30">
          <mxGeometry y="298" width="100" height="32" as="geometry" />
        </mxCell>
        <mxCell id="53rKh5pQGC1R5wsvCNT7-42" value="# N_documento INT&#xa;" style="text;align=left;verticalAlign=top;spacingLeft=4;spacingRight=4;overflow=hidden;rotatable=0;points=[[0,0.5],[1,0.5]];portConstraint=eastwest;" vertex="1" parent="53rKh5pQGC1R5wsvCNT7-30">
          <mxGeometry y="330" width="100" height="26" as="geometry" />
        </mxCell>
        <mxCell id="53rKh5pQGC1R5wsvCNT7-43" value="- T_doc  VARCHAR" style="text;align=left;verticalAlign=top;spacingLeft=4;spacingRight=4;overflow=hidden;rotatable=0;points=[[0,0.5],[1,0.5]];portConstraint=eastwest;rounded=0;shadow=0;html=0;" vertex="1" parent="53rKh5pQGC1R5wsvCNT7-30">
          <mxGeometry y="356" width="100" height="26" as="geometry" />
        </mxCell>
        <mxCell id="53rKh5pQGC1R5wsvCNT7-44" value="# name VARCHAR    " style="text;align=left;verticalAlign=top;spacingLeft=4;spacingRight=4;overflow=hidden;rotatable=0;points=[[0,0.5],[1,0.5]];portConstraint=eastwest;rounded=0;shadow=0;html=0;" vertex="1" parent="53rKh5pQGC1R5wsvCNT7-30">
          <mxGeometry y="382" width="100" height="26" as="geometry" />
        </mxCell>
        <mxCell id="53rKh5pQGC1R5wsvCNT7-45" value="- Dir  VARCHAR" style="text;align=left;verticalAlign=top;spacingLeft=4;spacingRight=4;overflow=hidden;rotatable=0;points=[[0,0.5],[1,0.5]];portConstraint=eastwest;" vertex="1" parent="53rKh5pQGC1R5wsvCNT7-30">
          <mxGeometry y="408" width="100" height="26" as="geometry" />
        </mxCell>
        <mxCell id="53rKh5pQGC1R5wsvCNT7-46" value="- pass VARCHAR" style="text;align=left;verticalAlign=top;spacingLeft=4;spacingRight=4;overflow=hidden;rotatable=0;points=[[0,0.5],[1,0.5]];portConstraint=eastwest;rounded=0;shadow=0;html=0;" vertex="1" parent="53rKh5pQGC1R5wsvCNT7-30">
          <mxGeometry y="434" width="100" height="26" as="geometry" />
        </mxCell>
        <mxCell id="53rKh5pQGC1R5wsvCNT7-47" value="# f_nac DATE" style="text;align=left;verticalAlign=top;spacingLeft=4;spacingRight=4;overflow=hidden;rotatable=0;points=[[0,0.5],[1,0.5]];portConstraint=eastwest;rounded=0;shadow=0;html=0;" vertex="1" parent="53rKh5pQGC1R5wsvCNT7-30">
          <mxGeometry y="460" width="100" height="26" as="geometry" />
        </mxCell>
        <mxCell id="53rKh5pQGC1R5wsvCNT7-49" value="Estudio&#xa;" style="swimlane;fontStyle=0;align=center;verticalAlign=top;childLayout=stackLayout;horizontal=1;startSize=26;horizontalStack=0;resizeParent=1;resizeLast=0;collapsible=1;marginBottom=0;rounded=0;shadow=0;strokeWidth=1;" vertex="1" parent="WIyWlLk6GJQsqaUBKTNV-1">
          <mxGeometry x="330" y="1310" width="100" height="486" as="geometry">
            <mxRectangle x="550" y="140" width="160" height="26" as="alternateBounds" />
          </mxGeometry>
        </mxCell>
        <mxCell id="53rKh5pQGC1R5wsvCNT7-50" value="# id_estudio INT" style="text;align=left;verticalAlign=top;spacingLeft=4;spacingRight=4;overflow=hidden;rotatable=0;points=[[0,0.5],[1,0.5]];portConstraint=eastwest;" vertex="1" parent="53rKh5pQGC1R5wsvCNT7-49">
          <mxGeometry y="26" width="100" height="26" as="geometry" />
        </mxCell>
        <mxCell id="53rKh5pQGC1R5wsvCNT7-51" value="+ n_institucion VARCHAR" style="text;align=left;verticalAlign=top;spacingLeft=4;spacingRight=4;overflow=hidden;rotatable=0;points=[[0,0.5],[1,0.5]];portConstraint=eastwest;rounded=0;shadow=0;html=0;" vertex="1" parent="53rKh5pQGC1R5wsvCNT7-49">
          <mxGeometry y="52" width="100" height="26" as="geometry" />
        </mxCell>
        <mxCell id="53rKh5pQGC1R5wsvCNT7-52" value="+ Descripcion TEXT" style="text;align=left;verticalAlign=top;spacingLeft=4;spacingRight=4;overflow=hidden;rotatable=0;points=[[0,0.5],[1,0.5]];portConstraint=eastwest;rounded=0;shadow=0;html=0;" vertex="1" parent="53rKh5pQGC1R5wsvCNT7-49">
          <mxGeometry y="78" width="100" height="26" as="geometry" />
        </mxCell>
        <mxCell id="53rKh5pQGC1R5wsvCNT7-53" value="+ f_inicio DATE" style="text;align=left;verticalAlign=top;spacingLeft=4;spacingRight=4;overflow=hidden;rotatable=0;points=[[0,0.5],[1,0.5]];portConstraint=eastwest;" vertex="1" parent="53rKh5pQGC1R5wsvCNT7-49">
          <mxGeometry y="104" width="100" height="26" as="geometry" />
        </mxCell>
        <mxCell id="53rKh5pQGC1R5wsvCNT7-54" value="+ f_fin DATE" style="text;align=left;verticalAlign=top;spacingLeft=4;spacingRight=4;overflow=hidden;rotatable=0;points=[[0,0.5],[1,0.5]];portConstraint=eastwest;" vertex="1" parent="53rKh5pQGC1R5wsvCNT7-49">
          <mxGeometry y="130" width="100" height="26" as="geometry" />
        </mxCell>
        <mxCell id="53rKh5pQGC1R5wsvCNT7-55" value="" style="line;html=1;strokeWidth=1;align=left;verticalAlign=middle;spacingTop=-1;spacingLeft=3;spacingRight=3;rotatable=0;labelPosition=right;points=[];portConstraint=eastwest;" vertex="1" parent="53rKh5pQGC1R5wsvCNT7-49">
          <mxGeometry y="156" width="100" height="38" as="geometry" />
        </mxCell>
        <mxCell id="53rKh5pQGC1R5wsvCNT7-56" value="+ Descripcion" style="text;align=left;verticalAlign=top;spacingLeft=4;spacingRight=4;overflow=hidden;rotatable=0;points=[[0,0.5],[1,0.5]];portConstraint=eastwest;rounded=0;shadow=0;html=0;" vertex="1" parent="53rKh5pQGC1R5wsvCNT7-49">
          <mxGeometry y="194" width="100" height="26" as="geometry" />
        </mxCell>
        <mxCell id="53rKh5pQGC1R5wsvCNT7-57" value="Insertar ()" style="text;align=left;verticalAlign=top;spacingLeft=4;spacingRight=4;overflow=hidden;rotatable=0;points=[[0,0.5],[1,0.5]];portConstraint=eastwest;rounded=0;shadow=0;html=0;" vertex="1" parent="53rKh5pQGC1R5wsvCNT7-49">
          <mxGeometry y="220" width="100" height="26" as="geometry" />
        </mxCell>
        <mxCell id="53rKh5pQGC1R5wsvCNT7-58" value="Eliminar ()" style="text;align=left;verticalAlign=top;spacingLeft=4;spacingRight=4;overflow=hidden;rotatable=0;points=[[0,0.5],[1,0.5]];portConstraint=eastwest;rounded=0;shadow=0;html=0;" vertex="1" parent="53rKh5pQGC1R5wsvCNT7-49">
          <mxGeometry y="246" width="100" height="26" as="geometry" />
        </mxCell>
        <mxCell id="53rKh5pQGC1R5wsvCNT7-59" value="Modificar ()" style="text;align=left;verticalAlign=top;spacingLeft=4;spacingRight=4;overflow=hidden;rotatable=0;points=[[0,0.5],[1,0.5]];portConstraint=eastwest;rounded=0;shadow=0;html=0;" vertex="1" parent="53rKh5pQGC1R5wsvCNT7-49">
          <mxGeometry y="272" width="100" height="26" as="geometry" />
        </mxCell>
        <mxCell id="53rKh5pQGC1R5wsvCNT7-60" value="" style="line;html=1;strokeWidth=1;align=left;verticalAlign=middle;spacingTop=-1;spacingLeft=3;spacingRight=3;rotatable=0;labelPosition=right;points=[];portConstraint=eastwest;" vertex="1" parent="53rKh5pQGC1R5wsvCNT7-49">
          <mxGeometry y="298" width="100" height="32" as="geometry" />
        </mxCell>
        <mxCell id="53rKh5pQGC1R5wsvCNT7-61" value="# N_documento INT&#xa;" style="text;align=left;verticalAlign=top;spacingLeft=4;spacingRight=4;overflow=hidden;rotatable=0;points=[[0,0.5],[1,0.5]];portConstraint=eastwest;" vertex="1" parent="53rKh5pQGC1R5wsvCNT7-49">
          <mxGeometry y="330" width="100" height="26" as="geometry" />
        </mxCell>
        <mxCell id="53rKh5pQGC1R5wsvCNT7-62" value="- T_doc  VARCHAR" style="text;align=left;verticalAlign=top;spacingLeft=4;spacingRight=4;overflow=hidden;rotatable=0;points=[[0,0.5],[1,0.5]];portConstraint=eastwest;rounded=0;shadow=0;html=0;" vertex="1" parent="53rKh5pQGC1R5wsvCNT7-49">
          <mxGeometry y="356" width="100" height="26" as="geometry" />
        </mxCell>
        <mxCell id="53rKh5pQGC1R5wsvCNT7-63" value="# name VARCHAR    " style="text;align=left;verticalAlign=top;spacingLeft=4;spacingRight=4;overflow=hidden;rotatable=0;points=[[0,0.5],[1,0.5]];portConstraint=eastwest;rounded=0;shadow=0;html=0;" vertex="1" parent="53rKh5pQGC1R5wsvCNT7-49">
          <mxGeometry y="382" width="100" height="26" as="geometry" />
        </mxCell>
        <mxCell id="53rKh5pQGC1R5wsvCNT7-64" value="- Dir  VARCHAR" style="text;align=left;verticalAlign=top;spacingLeft=4;spacingRight=4;overflow=hidden;rotatable=0;points=[[0,0.5],[1,0.5]];portConstraint=eastwest;" vertex="1" parent="53rKh5pQGC1R5wsvCNT7-49">
          <mxGeometry y="408" width="100" height="26" as="geometry" />
        </mxCell>
        <mxCell id="53rKh5pQGC1R5wsvCNT7-65" value="- pass VARCHAR" style="text;align=left;verticalAlign=top;spacingLeft=4;spacingRight=4;overflow=hidden;rotatable=0;points=[[0,0.5],[1,0.5]];portConstraint=eastwest;rounded=0;shadow=0;html=0;" vertex="1" parent="53rKh5pQGC1R5wsvCNT7-49">
          <mxGeometry y="434" width="100" height="26" as="geometry" />
        </mxCell>
        <mxCell id="53rKh5pQGC1R5wsvCNT7-66" value="# f_nac DATE" style="text;align=left;verticalAlign=top;spacingLeft=4;spacingRight=4;overflow=hidden;rotatable=0;points=[[0,0.5],[1,0.5]];portConstraint=eastwest;rounded=0;shadow=0;html=0;" vertex="1" parent="53rKh5pQGC1R5wsvCNT7-49">
          <mxGeometry y="460" width="100" height="26" as="geometry" />
        </mxCell>
        <mxCell id="53rKh5pQGC1R5wsvCNT7-68" value="Postulacion" style="swimlane;fontStyle=2;align=center;verticalAlign=top;childLayout=stackLayout;horizontal=1;startSize=26;horizontalStack=0;resizeParent=1;resizeLast=0;collapsible=1;marginBottom=0;rounded=0;shadow=0;strokeWidth=1;" vertex="1" parent="WIyWlLk6GJQsqaUBKTNV-1">
          <mxGeometry x="430" y="710" width="200" height="548" as="geometry">
            <mxRectangle x="230" y="140" width="160" height="26" as="alternateBounds" />
          </mxGeometry>
        </mxCell>
        <mxCell id="53rKh5pQGC1R5wsvCNT7-69" value="# id_postulaciones" style="text;align=left;verticalAlign=top;spacingLeft=4;spacingRight=4;overflow=hidden;rotatable=0;points=[[0,0.5],[1,0.5]];portConstraint=eastwest;rounded=0;shadow=0;html=0;" vertex="1" parent="53rKh5pQGC1R5wsvCNT7-68">
          <mxGeometry y="26" width="200" height="26" as="geometry" />
        </mxCell>
        <mxCell id="53rKh5pQGC1R5wsvCNT7-70" value="+ Descripcion VARCHAR" style="text;align=left;verticalAlign=top;spacingLeft=4;spacingRight=4;overflow=hidden;rotatable=0;points=[[0,0.5],[1,0.5]];portConstraint=eastwest;rounded=0;shadow=0;html=0;" vertex="1" parent="53rKh5pQGC1R5wsvCNT7-68">
          <mxGeometry y="52" width="200" height="26" as="geometry" />
        </mxCell>
        <mxCell id="53rKh5pQGC1R5wsvCNT7-71" value="" style="line;html=1;strokeWidth=1;align=left;verticalAlign=middle;spacingTop=-1;spacingLeft=3;spacingRight=3;rotatable=0;labelPosition=right;points=[];portConstraint=eastwest;" vertex="1" parent="53rKh5pQGC1R5wsvCNT7-68">
          <mxGeometry y="78" width="200" height="18" as="geometry" />
        </mxCell>
        <mxCell id="53rKh5pQGC1R5wsvCNT7-72" value="Insertar ()" style="text;align=left;verticalAlign=top;spacingLeft=4;spacingRight=4;overflow=hidden;rotatable=0;points=[[0,0.5],[1,0.5]];portConstraint=eastwest;rounded=0;shadow=0;html=0;" vertex="1" parent="53rKh5pQGC1R5wsvCNT7-68">
          <mxGeometry y="96" width="200" height="26" as="geometry" />
        </mxCell>
        <mxCell id="53rKh5pQGC1R5wsvCNT7-73" value="Consultar ()" style="text;align=left;verticalAlign=top;spacingLeft=4;spacingRight=4;overflow=hidden;rotatable=0;points=[[0,0.5],[1,0.5]];portConstraint=eastwest;rounded=0;shadow=0;html=0;" vertex="1" parent="53rKh5pQGC1R5wsvCNT7-68">
          <mxGeometry y="122" width="200" height="26" as="geometry" />
        </mxCell>
        <mxCell id="53rKh5pQGC1R5wsvCNT7-74" value="Eliminar ()" style="text;align=left;verticalAlign=top;spacingLeft=4;spacingRight=4;overflow=hidden;rotatable=0;points=[[0,0.5],[1,0.5]];portConstraint=eastwest;rounded=0;shadow=0;html=0;" vertex="1" parent="53rKh5pQGC1R5wsvCNT7-68">
          <mxGeometry y="148" width="200" height="26" as="geometry" />
        </mxCell>
        <mxCell id="53rKh5pQGC1R5wsvCNT7-75" value="Modificar ()" style="text;align=left;verticalAlign=top;spacingLeft=4;spacingRight=4;overflow=hidden;rotatable=0;points=[[0,0.5],[1,0.5]];portConstraint=eastwest;rounded=0;shadow=0;html=0;" vertex="1" parent="53rKh5pQGC1R5wsvCNT7-68">
          <mxGeometry y="174" width="200" height="26" as="geometry" />
        </mxCell>
        <mxCell id="53rKh5pQGC1R5wsvCNT7-76" value="" style="line;html=1;strokeWidth=1;align=left;verticalAlign=middle;spacingTop=-1;spacingLeft=3;spacingRight=3;rotatable=0;labelPosition=right;points=[];portConstraint=eastwest;" vertex="1" parent="53rKh5pQGC1R5wsvCNT7-68">
          <mxGeometry y="200" width="200" height="34" as="geometry" />
        </mxCell>
        <mxCell id="53rKh5pQGC1R5wsvCNT7-77" value="# N_documento INT&#xa;" style="text;align=left;verticalAlign=top;spacingLeft=4;spacingRight=4;overflow=hidden;rotatable=0;points=[[0,0.5],[1,0.5]];portConstraint=eastwest;" vertex="1" parent="53rKh5pQGC1R5wsvCNT7-68">
          <mxGeometry y="234" width="200" height="26" as="geometry" />
        </mxCell>
        <mxCell id="53rKh5pQGC1R5wsvCNT7-78" value="# name VARCHAR    " style="text;align=left;verticalAlign=top;spacingLeft=4;spacingRight=4;overflow=hidden;rotatable=0;points=[[0,0.5],[1,0.5]];portConstraint=eastwest;rounded=0;shadow=0;html=0;" vertex="1" parent="53rKh5pQGC1R5wsvCNT7-68">
          <mxGeometry y="260" width="200" height="26" as="geometry" />
        </mxCell>
        <mxCell id="53rKh5pQGC1R5wsvCNT7-79" value="  " style="text;align=left;verticalAlign=top;spacingLeft=4;spacingRight=4;overflow=hidden;rotatable=0;points=[[0,0.5],[1,0.5]];portConstraint=eastwest;rounded=0;shadow=0;html=0;" vertex="1" parent="53rKh5pQGC1R5wsvCNT7-68">
          <mxGeometry y="286" width="200" height="2" as="geometry" />
        </mxCell>
        <mxCell id="53rKh5pQGC1R5wsvCNT7-80" value="# id_hvida INT" style="text;align=left;verticalAlign=top;spacingLeft=4;spacingRight=4;overflow=hidden;rotatable=0;points=[[0,0.5],[1,0.5]];portConstraint=eastwest;rounded=0;shadow=0;html=0;" vertex="1" parent="53rKh5pQGC1R5wsvCNT7-68">
          <mxGeometry y="288" width="200" height="26" as="geometry" />
        </mxCell>
        <mxCell id="53rKh5pQGC1R5wsvCNT7-81" value="+ Correo_Usu  VARCHAR" style="text;align=left;verticalAlign=top;spacingLeft=4;spacingRight=4;overflow=hidden;rotatable=0;points=[[0,0.5],[1,0.5]];portConstraint=eastwest;rounded=0;shadow=0;html=0;" vertex="1" parent="53rKh5pQGC1R5wsvCNT7-68">
          <mxGeometry y="314" width="200" height="26" as="geometry" />
        </mxCell>
        <mxCell id="53rKh5pQGC1R5wsvCNT7-82" value="+ Telefono_Usu  INT" style="text;align=left;verticalAlign=top;spacingLeft=4;spacingRight=4;overflow=hidden;rotatable=0;points=[[0,0.5],[1,0.5]];portConstraint=eastwest;rounded=0;shadow=0;html=0;" vertex="1" parent="53rKh5pQGC1R5wsvCNT7-68">
          <mxGeometry y="340" width="200" height="26" as="geometry" />
        </mxCell>
        <mxCell id="53rKh5pQGC1R5wsvCNT7-83" value="+ Direccion_Usu  VARCHAR" style="text;align=left;verticalAlign=top;spacingLeft=4;spacingRight=4;overflow=hidden;rotatable=0;points=[[0,0.5],[1,0.5]];portConstraint=eastwest;rounded=0;shadow=0;html=0;" vertex="1" parent="53rKh5pQGC1R5wsvCNT7-68">
          <mxGeometry y="366" width="200" height="26" as="geometry" />
        </mxCell>
        <mxCell id="53rKh5pQGC1R5wsvCNT7-84" value="# Codigo_Pro INT" style="text;align=left;verticalAlign=top;spacingLeft=4;spacingRight=4;overflow=hidden;rotatable=0;points=[[0,0.5],[1,0.5]];portConstraint=eastwest;" vertex="1" parent="53rKh5pQGC1R5wsvCNT7-68">
          <mxGeometry y="392" width="200" height="26" as="geometry" />
        </mxCell>
        <mxCell id="53rKh5pQGC1R5wsvCNT7-85" value="# Nombre_Pro VARCHAR" style="text;align=left;verticalAlign=top;spacingLeft=4;spacingRight=4;overflow=hidden;rotatable=0;points=[[0,0.5],[1,0.5]];portConstraint=eastwest;rounded=0;shadow=0;html=0;" vertex="1" parent="53rKh5pQGC1R5wsvCNT7-68">
          <mxGeometry y="418" width="200" height="26" as="geometry" />
        </mxCell>
        <mxCell id="53rKh5pQGC1R5wsvCNT7-86" value="+ Precio_Pro VARCHAR" style="text;align=left;verticalAlign=top;spacingLeft=4;spacingRight=4;overflow=hidden;rotatable=0;points=[[0,0.5],[1,0.5]];portConstraint=eastwest;rounded=0;shadow=0;html=0;" vertex="1" parent="53rKh5pQGC1R5wsvCNT7-68">
          <mxGeometry y="444" width="200" height="26" as="geometry" />
        </mxCell>
        <mxCell id="53rKh5pQGC1R5wsvCNT7-87" value="+ FechaSAL_Pro DATE" style="text;align=left;verticalAlign=top;spacingLeft=4;spacingRight=4;overflow=hidden;rotatable=0;points=[[0,0.5],[1,0.5]];portConstraint=eastwest;rounded=0;shadow=0;html=0;" vertex="1" parent="53rKh5pQGC1R5wsvCNT7-68">
          <mxGeometry y="470" width="200" height="26" as="geometry" />
        </mxCell>
        <mxCell id="53rKh5pQGC1R5wsvCNT7-88" value="# id_categoria&#xa;" style="text;align=left;verticalAlign=top;spacingLeft=4;spacingRight=4;overflow=hidden;rotatable=0;points=[[0,0.5],[1,0.5]];portConstraint=eastwest;rounded=0;shadow=0;html=0;" vertex="1" parent="53rKh5pQGC1R5wsvCNT7-68">
          <mxGeometry y="496" width="200" height="26" as="geometry" />
        </mxCell>
        <mxCell id="53rKh5pQGC1R5wsvCNT7-90" value="" style="endArrow=none;html=1;rounded=0;fontSize=17;entryX=0.004;entryY=-0.115;entryDx=0;entryDy=0;exitX=1;exitY=0.5;exitDx=0;exitDy=0;entryPerimeter=0;" edge="1" parent="WIyWlLk6GJQsqaUBKTNV-1" source="53rKh5pQGC1R5wsvCNT7-77" target="jOX8B1E6yKh5dsAMCE3R-262">
          <mxGeometry width="50" height="50" relative="1" as="geometry">
            <mxPoint x="620" y="970" as="sourcePoint" />
            <mxPoint x="790" y="1342" as="targetPoint" />
          </mxGeometry>
        </mxCell>
        <mxCell id="53rKh5pQGC1R5wsvCNT7-91" value="*" style="edgeLabel;html=1;align=center;verticalAlign=middle;resizable=0;points=[];fontSize=17;" connectable="0" vertex="1" parent="53rKh5pQGC1R5wsvCNT7-90">
          <mxGeometry x="-0.6133" y="-4" relative="1" as="geometry">
            <mxPoint as="offset" />
          </mxGeometry>
        </mxCell>
        <mxCell id="53rKh5pQGC1R5wsvCNT7-92" value="1" style="edgeLabel;html=1;align=center;verticalAlign=middle;resizable=0;points=[];fontSize=17;" connectable="0" vertex="1" parent="53rKh5pQGC1R5wsvCNT7-90">
          <mxGeometry x="0.48" y="-2" relative="1" as="geometry">
            <mxPoint y="2" as="offset" />
          </mxGeometry>
        </mxCell>
        <mxCell id="53rKh5pQGC1R5wsvCNT7-93" value="Horas extra" style="swimlane;fontStyle=2;align=center;verticalAlign=top;childLayout=stackLayout;horizontal=1;startSize=26;horizontalStack=0;resizeParent=1;resizeLast=0;collapsible=1;marginBottom=0;rounded=0;shadow=0;strokeWidth=1;" vertex="1" parent="WIyWlLk6GJQsqaUBKTNV-1">
          <mxGeometry x="2050" y="673" width="180" height="430" as="geometry">
            <mxRectangle x="230" y="140" width="160" height="26" as="alternateBounds" />
          </mxGeometry>
        </mxCell>
        <mxCell id="53rKh5pQGC1R5wsvCNT7-94" value="# id_horasextra INT" style="text;align=left;verticalAlign=top;spacingLeft=4;spacingRight=4;overflow=hidden;rotatable=0;points=[[0,0.5],[1,0.5]];portConstraint=eastwest;" vertex="1" parent="53rKh5pQGC1R5wsvCNT7-93">
          <mxGeometry y="26" width="180" height="26" as="geometry" />
        </mxCell>
        <mxCell id="53rKh5pQGC1R5wsvCNT7-95" value="+ fecha_dia DATE" style="text;align=left;verticalAlign=top;spacingLeft=4;spacingRight=4;overflow=hidden;rotatable=0;points=[[0,0.5],[1,0.5]];portConstraint=eastwest;rounded=0;shadow=0;html=0;" vertex="1" parent="53rKh5pQGC1R5wsvCNT7-93">
          <mxGeometry y="52" width="180" height="26" as="geometry" />
        </mxCell>
        <mxCell id="53rKh5pQGC1R5wsvCNT7-96" value="+ ini_hora_extra TIME" style="text;align=left;verticalAlign=top;spacingLeft=4;spacingRight=4;overflow=hidden;rotatable=0;points=[[0,0.5],[1,0.5]];portConstraint=eastwest;rounded=0;shadow=0;html=0;" vertex="1" parent="53rKh5pQGC1R5wsvCNT7-93">
          <mxGeometry y="78" width="180" height="26" as="geometry" />
        </mxCell>
        <mxCell id="53rKh5pQGC1R5wsvCNT7-97" value="+ fin_hora_extra TIME" style="text;align=left;verticalAlign=top;spacingLeft=4;spacingRight=4;overflow=hidden;rotatable=0;points=[[0,0.5],[1,0.5]];portConstraint=eastwest;rounded=0;shadow=0;html=0;" vertex="1" parent="53rKh5pQGC1R5wsvCNT7-93">
          <mxGeometry y="104" width="180" height="26" as="geometry" />
        </mxCell>
        <mxCell id="53rKh5pQGC1R5wsvCNT7-98" value="" style="line;html=1;strokeWidth=1;align=left;verticalAlign=middle;spacingTop=-1;spacingLeft=3;spacingRight=3;rotatable=0;labelPosition=right;points=[];portConstraint=eastwest;" vertex="1" parent="53rKh5pQGC1R5wsvCNT7-93">
          <mxGeometry y="130" width="180" height="8" as="geometry" />
        </mxCell>
        <mxCell id="53rKh5pQGC1R5wsvCNT7-99" value="Insertar ()" style="text;align=left;verticalAlign=top;spacingLeft=4;spacingRight=4;overflow=hidden;rotatable=0;points=[[0,0.5],[1,0.5]];portConstraint=eastwest;rounded=0;shadow=0;html=0;" vertex="1" parent="53rKh5pQGC1R5wsvCNT7-93">
          <mxGeometry y="138" width="180" height="26" as="geometry" />
        </mxCell>
        <mxCell id="53rKh5pQGC1R5wsvCNT7-100" value="Consultas ()" style="text;align=left;verticalAlign=top;spacingLeft=4;spacingRight=4;overflow=hidden;rotatable=0;points=[[0,0.5],[1,0.5]];portConstraint=eastwest;rounded=0;shadow=0;html=0;" vertex="1" parent="53rKh5pQGC1R5wsvCNT7-93">
          <mxGeometry y="164" width="180" height="26" as="geometry" />
        </mxCell>
        <mxCell id="53rKh5pQGC1R5wsvCNT7-101" value="Eliminar ()" style="text;align=left;verticalAlign=top;spacingLeft=4;spacingRight=4;overflow=hidden;rotatable=0;points=[[0,0.5],[1,0.5]];portConstraint=eastwest;rounded=0;shadow=0;html=0;" vertex="1" parent="53rKh5pQGC1R5wsvCNT7-93">
          <mxGeometry y="190" width="180" height="26" as="geometry" />
        </mxCell>
        <mxCell id="53rKh5pQGC1R5wsvCNT7-102" value="Modificar ()" style="text;align=left;verticalAlign=top;spacingLeft=4;spacingRight=4;overflow=hidden;rotatable=0;points=[[0,0.5],[1,0.5]];portConstraint=eastwest;rounded=0;shadow=0;html=0;" vertex="1" parent="53rKh5pQGC1R5wsvCNT7-93">
          <mxGeometry y="216" width="180" height="26" as="geometry" />
        </mxCell>
        <mxCell id="53rKh5pQGC1R5wsvCNT7-103" value="" style="line;html=1;strokeWidth=1;align=left;verticalAlign=middle;spacingTop=-1;spacingLeft=3;spacingRight=3;rotatable=0;labelPosition=right;points=[];portConstraint=eastwest;" vertex="1" parent="53rKh5pQGC1R5wsvCNT7-93">
          <mxGeometry y="242" width="180" height="8" as="geometry" />
        </mxCell>
        <mxCell id="53rKh5pQGC1R5wsvCNT7-104" value="# N_documento INT&#xa;" style="text;align=left;verticalAlign=top;spacingLeft=4;spacingRight=4;overflow=hidden;rotatable=0;points=[[0,0.5],[1,0.5]];portConstraint=eastwest;" vertex="1" parent="53rKh5pQGC1R5wsvCNT7-93">
          <mxGeometry y="250" width="180" height="26" as="geometry" />
        </mxCell>
        <mxCell id="53rKh5pQGC1R5wsvCNT7-105" value="# name VARCHAR    " style="text;align=left;verticalAlign=top;spacingLeft=4;spacingRight=4;overflow=hidden;rotatable=0;points=[[0,0.5],[1,0.5]];portConstraint=eastwest;rounded=0;shadow=0;html=0;" vertex="1" parent="53rKh5pQGC1R5wsvCNT7-93">
          <mxGeometry y="276" width="180" height="26" as="geometry" />
        </mxCell>
        <mxCell id="53rKh5pQGC1R5wsvCNT7-106" value="# id_contrato INT&#xa;" style="text;align=left;verticalAlign=top;spacingLeft=4;spacingRight=4;overflow=hidden;rotatable=0;points=[[0,0.5],[1,0.5]];portConstraint=eastwest;rounded=0;shadow=0;html=0;" vertex="1" parent="53rKh5pQGC1R5wsvCNT7-93">
          <mxGeometry y="302" width="180" height="26" as="geometry" />
        </mxCell>
        <mxCell id="53rKh5pQGC1R5wsvCNT7-107" value="+ estado_cont VARCHAR" style="text;align=left;verticalAlign=top;spacingLeft=4;spacingRight=4;overflow=hidden;rotatable=0;points=[[0,0.5],[1,0.5]];portConstraint=eastwest;rounded=0;shadow=0;html=0;" vertex="1" parent="53rKh5pQGC1R5wsvCNT7-93">
          <mxGeometry y="328" width="180" height="26" as="geometry" />
        </mxCell>
        <mxCell id="53rKh5pQGC1R5wsvCNT7-108" value="+ tipo_cont VARCHAR&#xa;" style="text;align=left;verticalAlign=top;spacingLeft=4;spacingRight=4;overflow=hidden;rotatable=0;points=[[0,0.5],[1,0.5]];portConstraint=eastwest;rounded=0;shadow=0;html=0;" vertex="1" parent="53rKh5pQGC1R5wsvCNT7-93">
          <mxGeometry y="354" width="180" height="26" as="geometry" />
        </mxCell>
        <mxCell id="53rKh5pQGC1R5wsvCNT7-109" value="+id_jornada INT" style="text;align=left;verticalAlign=top;spacingLeft=4;spacingRight=4;overflow=hidden;rotatable=0;points=[[0,0.5],[1,0.5]];portConstraint=eastwest;rounded=0;shadow=0;html=0;" vertex="1" parent="53rKh5pQGC1R5wsvCNT7-93">
          <mxGeometry y="380" width="180" height="26" as="geometry" />
        </mxCell>
        <mxCell id="53rKh5pQGC1R5wsvCNT7-110" value="" style="endArrow=none;html=1;rounded=0;fontSize=17;exitX=-0.01;exitY=0.904;exitDx=0;exitDy=0;exitPerimeter=0;entryX=1.008;entryY=0.202;entryDx=0;entryDy=0;entryPerimeter=0;" edge="1" parent="WIyWlLk6GJQsqaUBKTNV-1" source="53rKh5pQGC1R5wsvCNT7-99" target="8CnTDP2FAJpPbmEVU6To-17">
          <mxGeometry width="50" height="50" relative="1" as="geometry">
            <mxPoint x="1939" y="726" as="sourcePoint" />
            <mxPoint x="1740" y="500" as="targetPoint" />
          </mxGeometry>
        </mxCell>
        <mxCell id="53rKh5pQGC1R5wsvCNT7-111" value="*" style="edgeLabel;html=1;align=center;verticalAlign=middle;resizable=0;points=[];fontSize=24;" connectable="0" vertex="1" parent="53rKh5pQGC1R5wsvCNT7-110">
          <mxGeometry x="-0.636" relative="1" as="geometry">
            <mxPoint as="offset" />
          </mxGeometry>
        </mxCell>
        <mxCell id="53rKh5pQGC1R5wsvCNT7-112" value="1" style="edgeLabel;html=1;align=center;verticalAlign=middle;resizable=0;points=[];fontSize=17;" connectable="0" vertex="1" parent="53rKh5pQGC1R5wsvCNT7-110">
          <mxGeometry x="0.5001" y="-1" relative="1" as="geometry">
            <mxPoint as="offset" />
          </mxGeometry>
        </mxCell>
        <mxCell id="53rKh5pQGC1R5wsvCNT7-115" value="Vacaciones" style="swimlane;fontStyle=0;align=center;verticalAlign=top;childLayout=stackLayout;horizontal=1;startSize=26;horizontalStack=0;resizeParent=1;resizeLast=0;collapsible=1;marginBottom=0;rounded=0;shadow=0;strokeWidth=1;" vertex="1" parent="WIyWlLk6GJQsqaUBKTNV-1">
          <mxGeometry x="1130" y="30" width="160" height="406" as="geometry">
            <mxRectangle x="550" y="140" width="160" height="26" as="alternateBounds" />
          </mxGeometry>
        </mxCell>
        <mxCell id="53rKh5pQGC1R5wsvCNT7-116" value="# id_vacaciones INT" style="text;align=left;verticalAlign=top;spacingLeft=4;spacingRight=4;overflow=hidden;rotatable=0;points=[[0,0.5],[1,0.5]];portConstraint=eastwest;" vertex="1" parent="53rKh5pQGC1R5wsvCNT7-115">
          <mxGeometry y="26" width="160" height="26" as="geometry" />
        </mxCell>
        <mxCell id="53rKh5pQGC1R5wsvCNT7-117" value="+ inicio_vac" style="text;align=left;verticalAlign=top;spacingLeft=4;spacingRight=4;overflow=hidden;rotatable=0;points=[[0,0.5],[1,0.5]];portConstraint=eastwest;rounded=0;shadow=0;html=0;" vertex="1" parent="53rKh5pQGC1R5wsvCNT7-115">
          <mxGeometry y="52" width="160" height="26" as="geometry" />
        </mxCell>
        <mxCell id="53rKh5pQGC1R5wsvCNT7-118" value="+ fin_vac" style="text;align=left;verticalAlign=top;spacingLeft=4;spacingRight=4;overflow=hidden;rotatable=0;points=[[0,0.5],[1,0.5]];portConstraint=eastwest;" vertex="1" parent="53rKh5pQGC1R5wsvCNT7-115">
          <mxGeometry y="78" width="160" height="26" as="geometry" />
        </mxCell>
        <mxCell id="53rKh5pQGC1R5wsvCNT7-119" value="" style="line;html=1;strokeWidth=1;align=left;verticalAlign=middle;spacingTop=-1;spacingLeft=3;spacingRight=3;rotatable=0;labelPosition=right;points=[];portConstraint=eastwest;" vertex="1" parent="53rKh5pQGC1R5wsvCNT7-115">
          <mxGeometry y="104" width="160" height="8" as="geometry" />
        </mxCell>
        <mxCell id="53rKh5pQGC1R5wsvCNT7-120" value="Insertar ()" style="text;align=left;verticalAlign=top;spacingLeft=4;spacingRight=4;overflow=hidden;rotatable=0;points=[[0,0.5],[1,0.5]];portConstraint=eastwest;" vertex="1" parent="53rKh5pQGC1R5wsvCNT7-115">
          <mxGeometry y="112" width="160" height="26" as="geometry" />
        </mxCell>
        <mxCell id="53rKh5pQGC1R5wsvCNT7-121" value="Consultar ()" style="text;align=left;verticalAlign=top;spacingLeft=4;spacingRight=4;overflow=hidden;rotatable=0;points=[[0,0.5],[1,0.5]];portConstraint=eastwest;" vertex="1" parent="53rKh5pQGC1R5wsvCNT7-115">
          <mxGeometry y="138" width="160" height="26" as="geometry" />
        </mxCell>
        <mxCell id="53rKh5pQGC1R5wsvCNT7-122" value="Eliminar ()" style="text;align=left;verticalAlign=top;spacingLeft=4;spacingRight=4;overflow=hidden;rotatable=0;points=[[0,0.5],[1,0.5]];portConstraint=eastwest;" vertex="1" parent="53rKh5pQGC1R5wsvCNT7-115">
          <mxGeometry y="164" width="160" height="26" as="geometry" />
        </mxCell>
        <mxCell id="53rKh5pQGC1R5wsvCNT7-123" value="Modificar ()" style="text;align=left;verticalAlign=top;spacingLeft=4;spacingRight=4;overflow=hidden;rotatable=0;points=[[0,0.5],[1,0.5]];portConstraint=eastwest;" vertex="1" parent="53rKh5pQGC1R5wsvCNT7-115">
          <mxGeometry y="190" width="160" height="26" as="geometry" />
        </mxCell>
        <mxCell id="53rKh5pQGC1R5wsvCNT7-124" value="" style="line;html=1;strokeWidth=1;align=left;verticalAlign=middle;spacingTop=-1;spacingLeft=3;spacingRight=3;rotatable=0;labelPosition=right;points=[];portConstraint=eastwest;" vertex="1" parent="53rKh5pQGC1R5wsvCNT7-115">
          <mxGeometry y="216" width="160" height="8" as="geometry" />
        </mxCell>
        <mxCell id="53rKh5pQGC1R5wsvCNT7-125" value="# N_documento INT&#xa;" style="text;align=left;verticalAlign=top;spacingLeft=4;spacingRight=4;overflow=hidden;rotatable=0;points=[[0,0.5],[1,0.5]];portConstraint=eastwest;rounded=0;shadow=0;html=0;" vertex="1" parent="53rKh5pQGC1R5wsvCNT7-115">
          <mxGeometry y="224" width="160" height="26" as="geometry" />
        </mxCell>
        <mxCell id="53rKh5pQGC1R5wsvCNT7-126" value="# name VARCHAR    " style="text;align=left;verticalAlign=top;spacingLeft=4;spacingRight=4;overflow=hidden;rotatable=0;points=[[0,0.5],[1,0.5]];portConstraint=eastwest;" vertex="1" parent="53rKh5pQGC1R5wsvCNT7-115">
          <mxGeometry y="250" width="160" height="26" as="geometry" />
        </mxCell>
        <mxCell id="53rKh5pQGC1R5wsvCNT7-127" value="# id_contrato INT&#xa;" style="text;align=left;verticalAlign=top;spacingLeft=4;spacingRight=4;overflow=hidden;rotatable=0;points=[[0,0.5],[1,0.5]];portConstraint=eastwest;rounded=0;shadow=0;html=0;" vertex="1" parent="53rKh5pQGC1R5wsvCNT7-115">
          <mxGeometry y="276" width="160" height="26" as="geometry" />
        </mxCell>
        <mxCell id="53rKh5pQGC1R5wsvCNT7-128" value="# id_jornada INT" style="text;align=left;verticalAlign=top;spacingLeft=4;spacingRight=4;overflow=hidden;rotatable=0;points=[[0,0.5],[1,0.5]];portConstraint=eastwest;" vertex="1" parent="53rKh5pQGC1R5wsvCNT7-115">
          <mxGeometry y="302" width="160" height="26" as="geometry" />
        </mxCell>
        <mxCell id="53rKh5pQGC1R5wsvCNT7-129" value="+ estado_cont VARCHAR" style="text;align=left;verticalAlign=top;spacingLeft=4;spacingRight=4;overflow=hidden;rotatable=0;points=[[0,0.5],[1,0.5]];portConstraint=eastwest;rounded=0;shadow=0;html=0;" vertex="1" parent="53rKh5pQGC1R5wsvCNT7-115">
          <mxGeometry y="328" width="160" height="26" as="geometry" />
        </mxCell>
        <mxCell id="53rKh5pQGC1R5wsvCNT7-130" value="+ tipo_cont VARCHAR&#xa;" style="text;align=left;verticalAlign=top;spacingLeft=4;spacingRight=4;overflow=hidden;rotatable=0;points=[[0,0.5],[1,0.5]];portConstraint=eastwest;rounded=0;shadow=0;html=0;" vertex="1" parent="53rKh5pQGC1R5wsvCNT7-115">
          <mxGeometry y="354" width="160" height="26" as="geometry" />
        </mxCell>
        <mxCell id="53rKh5pQGC1R5wsvCNT7-131" value="" style="endArrow=none;html=1;rounded=0;fontSize=17;exitX=0;exitY=0.5;exitDx=0;exitDy=0;entryX=0.997;entryY=0.923;entryDx=0;entryDy=0;entryPerimeter=0;" edge="1" parent="WIyWlLk6GJQsqaUBKTNV-1" source="7QewovfHQO4eRIdTPmeA-72" target="53rKh5pQGC1R5wsvCNT7-123">
          <mxGeometry width="50" height="50" relative="1" as="geometry">
            <mxPoint x="1679" y="877" as="sourcePoint" />
            <mxPoint x="1590" y="361" as="targetPoint" />
          </mxGeometry>
        </mxCell>
        <mxCell id="53rKh5pQGC1R5wsvCNT7-132" value="*" style="edgeLabel;html=1;align=center;verticalAlign=middle;resizable=0;points=[];fontSize=24;" connectable="0" vertex="1" parent="53rKh5pQGC1R5wsvCNT7-131">
          <mxGeometry x="-0.636" relative="1" as="geometry">
            <mxPoint as="offset" />
          </mxGeometry>
        </mxCell>
        <mxCell id="53rKh5pQGC1R5wsvCNT7-133" value="1" style="edgeLabel;html=1;align=center;verticalAlign=middle;resizable=0;points=[];fontSize=17;" connectable="0" vertex="1" parent="53rKh5pQGC1R5wsvCNT7-131">
          <mxGeometry x="0.5001" y="-1" relative="1" as="geometry">
            <mxPoint as="offset" />
          </mxGeometry>
        </mxCell>
      </root>
    </mxGraphModel>
  </diagram>
</mxfile>
